<?xml version="1.0" encoding="UTF-8"?>
<svg id="Layer_1" xmlns="http://www.w3.org/2000/svg" version="1.1" viewBox="0 0 497.74 379.59">
  <!-- Generator: Adobe Illustrator 29.6.1, SVG Export Plug-In . SVG Version: 2.1.1 Build 9)  -->
  <defs>
    <style>
      .st0 {
        fill: #90c642;
      }

      .st1 {
        fill: #90c541;
      }

      .st2 {
        fill: #8fc843;
      }

      .st3 {
        fill: #1289d7;
      }

      .st4 {
        fill: #0879c0;
      }

      .st5 {
        fill: #0078c1;
      }

      .st6 {
        fill: #0779c3;
      }
    </style>
  </defs>
  <path class="st1" d="M340.35,4.7c25.2-4.1,51-6,76.5-3.6,19.1,2,38.7,6.4,54.8,17.4,10.9,7.4,19.3,18.3,23,31,5.3,17.4,3.1,36.1-1.4,53.4-3.1,11.3-7.2,22.3-11.6,33.1-.4-1.5.2-2.9.6-4.4,5.4-18.9,5.3-39.6-1.5-58.2-5.5-15.2-16.2-28.3-29.2-37.8-16.8-12.3-36.9-19.4-57.1-23.8-18.2-3.8-36.7-6.1-55.3-6.4.3-.1.9-.5,1.2-.7Z"/>
  <path class="st0" d="M258.75,23c24.3-3.7,49-5.6,73.6-5.1,22.2.4,44.5,2.8,65.8,9.1,15.5,4.6,30.5,11.5,42.8,22.1,11.8,10,20.4,23.7,24.1,38.7,5.2,20.2,2.9,41.5-2.1,61.4-3.7,14.6-9.1,28.6-14.9,42.4l-1,1.1c2.1-16.9-.5-34.2-5.3-50.5-6.2-20.5-17.4-39.3-32.2-54.7-24.8-26-58-42.2-92.1-52.2-18.9-5.5-38.3-9.2-57.8-11.8l-.9-.5Z"/>
  <path class="st5" d="M100.85,29.1c25.9,24.5,51.4,49.5,77.1,74.2,13,12.6,26.2,25.1,39.1,37.8l-.2.5c-9.7,5.6-19.4,11.3-29.1,16.9,13.9,13.9,27.6,28,41.4,42,8.9-5.8,17.9-11.4,26.8-17.1,1-.5,1.9-1.5,3.1-1.5,38.1,36.6,76.2,73.2,114.3,109.9l-.1.7c-27.5,26.3-62.1,44.7-98.8,54.5-47.4,12.6-98.6,11.6-145.2-4-35.5-11.9-68.5-32.5-92.5-61.6-12.9-15.5-23-33.4-29.3-52.6C.15,206.6-1.85,182.8,1.75,159.7c5.1-33.6,21.8-64.8,45-89.4,15.7-16.6,34.1-30.5,54.1-41.2Z"/>
  <path class="st2" d="M141.05,54c41.1-17.6,87-23.2,131.4-17.7,37.7,4.8,74.7,18.3,105.2,41.2,16.3,12.3,30.5,27.5,40.7,45.3,10,17.6,16,37.7,16,58,.3,19.7-4.9,39.3-14.2,56.6-9.3,17.4-22.5,32.7-37.7,45.2-1,.6-1.7,1.9-2.9,2-36.4-35.2-72.9-70.4-109.4-105.6-.8-1-2.1-1.7-2.5-3,6.4-4.1,12.9-8,19.2-12.3-4.9-5.5-10.8-10.2-16-15.4-8.5-7.7-16.5-16.1-25.4-23.3-6.5,3.7-13,7.4-19.4,11.3-25-23.7-49.6-47.8-74.5-71.7-3.4-3.6-7.3-6.8-10.5-10.6Z"/>
  <path class="st4" d="M209.75,168.4c11.1-7,22.5-13.5,33.8-20.2l.8.2c6.9,6.4,13.7,13,20.6,19.4-6,4.5-12.8,8.1-19,12.2-5.1,3-9.9,6.4-15.2,9.2-7.1-6.8-14-13.8-21-20.8Z"/>
  <path class="st3" d="M29.35,281.9c1.8,1.2,2.6,3.3,4.1,4.8,12.1,16,27.4,29.4,43.9,40.5-.7.6-2,.9-2.3,1.9.4,1,1.1,1.9,1,3-18.5-13.6-34.3-30.8-46.7-50.2Z"/>
  <path class="st6" d="M324.75,339c17.3-9.1,33.7-19.9,48.1-33.1-.4,8.2-.9,16.4-1.6,24.6-31.1,25.2-69.5,40.4-108.9,46.3-64.6,9.5-133.6-5.2-186.2-44.6h0c0-1.1-.6-2-1-3,.3-1,1.6-1.3,2.3-1.9,37.7,25,83,37.4,128,38,22.6,0,45.3-1.8,67.2-7.3,17.9-4.8,35.6-10.5,52.1-19Z"/>
</svg>