<?xml version="1.0" encoding="utf-8"?>
<!-- Generator: Adobe Illustrator 24.2.0, SVG Export Plug-In . SVG Version: 6.00 Build 0)  -->
<svg version="1.1" id="Layer_1" xmlns="http://www.w3.org/2000/svg" xmlns:xlink="http://www.w3.org/1999/xlink" x="0px" y="0px"
	 viewBox="0 0 787.8 721.5" style="enable-background:new 0 0 787.8 721.5;" xml:space="preserve">
<style type="text/css">
	.st0{fill:#90C541;}
	.st1{fill:#90C642;}
	.st2{fill:#0078C1;}
	.st3{fill:#8FC843;}
	.st4{fill:#0879C0;}
	.st5{fill:#1289D7;}
	.st6{fill:#0779C3;}
	.st7{fill:#8EACDD;}
	.st8{fill:#8CA9D7;}
	.st9{fill:#0579C0;}
	.st10{fill:#8CA8D5;}
	.st11{fill:#0679C0;}
	.st12{fill:#91C545;}
	.st13{fill:#92D037;}
</style>
<g>
	<path class="st0" d="M460.3,4.7c25.2-4.1,51-6,76.5-3.6c19.1,2,38.7,6.4,54.8,17.4c10.9,7.4,19.3,18.3,23,31
		c5.3,17.4,3.1,36.1-1.4,53.4c-3.1,11.3-7.2,22.3-11.6,33.1c-0.4-1.5,0.2-2.9,0.6-4.4c5.4-18.9,5.3-39.6-1.5-58.2
		c-5.5-15.2-16.2-28.3-29.2-37.8c-16.8-12.3-36.9-19.4-57.1-23.8c-18.2-3.8-36.7-6.1-55.3-6.4C459.4,5.3,460,4.9,460.3,4.7z"/>
</g>
<g>
	<path class="st1" d="M378.7,23c24.3-3.7,49-5.6,73.6-5.1c22.2,0.4,44.5,2.8,65.8,9.1c15.5,4.6,30.5,11.5,42.8,22.1
		c11.8,10,20.4,23.7,24.1,38.7c5.2,20.2,2.9,41.5-2.1,61.4c-3.7,14.6-9.1,28.6-14.9,42.4l-1,1.1c2.1-16.9-0.5-34.2-5.3-50.5
		c-6.2-20.5-17.4-39.3-32.2-54.7c-24.8-26-58-42.2-92.1-52.2c-18.9-5.5-38.3-9.2-57.8-11.8L378.7,23z"/>
</g>
<g>
	<path class="st2" d="M220.8,29.1c25.9,24.5,51.4,49.5,77.1,74.2c13,12.6,26.2,25.1,39.1,37.8l-0.2,0.5
		c-9.7,5.6-19.4,11.3-29.1,16.9c13.9,13.9,27.6,28,41.4,42c8.9-5.8,17.9-11.4,26.8-17.1c1-0.5,1.9-1.5,3.1-1.5
		c38.1,36.6,76.2,73.2,114.3,109.9l-0.1,0.7c-27.5,26.3-62.1,44.7-98.8,54.5c-47.4,12.6-98.6,11.6-145.2-4
		c-35.5-11.9-68.5-32.5-92.5-61.6c-12.9-15.5-23-33.4-29.3-52.6c-7.3-22.2-9.3-46-5.7-69.1c5.1-33.6,21.8-64.8,45-89.4
		C182.4,53.7,200.8,39.8,220.8,29.1z"/>
</g>
<g>
	<path class="st3" d="M261,54c41.1-17.6,87-23.2,131.4-17.7c37.7,4.8,74.7,18.3,105.2,41.2c16.3,12.3,30.5,27.5,40.7,45.3
		c10,17.6,16,37.7,16,58c0.3,19.7-4.9,39.3-14.2,56.6c-9.3,17.4-22.5,32.7-37.7,45.2c-1,0.6-1.7,1.9-2.9,2
		c-36.4-35.2-72.9-70.4-109.4-105.6c-0.8-1-2.1-1.7-2.5-3c6.4-4.1,12.9-8,19.2-12.3c-4.9-5.5-10.8-10.2-16-15.4
		c-8.5-7.7-16.5-16.1-25.4-23.3c-6.5,3.7-13,7.4-19.4,11.3c-25-23.7-49.6-47.8-74.5-71.7C268.1,61,264.2,57.8,261,54z"/>
</g>
<g>
	<path class="st4" d="M329.7,168.4c11.1-7,22.5-13.5,33.8-20.2l0.8,0.2c6.9,6.4,13.7,13,20.6,19.4c-6,4.5-12.8,8.1-19,12.2
		c-5.1,3-9.9,6.4-15.2,9.2C343.6,182.4,336.7,175.4,329.7,168.4z"/>
</g>
<g>
	<path class="st5" d="M149.3,281.9c1.8,1.2,2.6,3.3,4.1,4.8c12.1,16,27.4,29.4,43.9,40.5c-0.7,0.6-2,0.9-2.3,1.9c0.4,1,1.1,1.9,1,3
		C177.5,318.5,161.7,301.3,149.3,281.9z"/>
</g>
<g>
	<path class="st6" d="M444.7,339c17.3-9.1,33.7-19.9,48.1-33.1c-0.4,8.2-0.9,16.4-1.6,24.6c-31.1,25.2-69.5,40.4-108.9,46.3
		c-64.6,9.5-133.6-5.2-186.2-44.6v0c0-1.1-0.6-2-1-3c0.3-1,1.6-1.3,2.3-1.9c37.7,25,83,37.4,128,38c22.6,0,45.3-1.8,67.2-7.3
		C410.5,353.2,428.2,347.5,444.7,339z"/>
</g>
<g>
	<path class="st7" d="M733.6,401c3.3-1.6,8.6-0.4,9.4,3.8c-0.6,5.9-10.7,6.2-12.1,0.6C730.3,403.5,731.9,401.7,733.6,401z"/>
</g>
<g>
	<path class="st8" d="M691.4,415.7c7.7-4,16.5-4.5,25-5c6.7,0,13.4-0.4,20,0.3c9-0.7,18-0.5,27,0.1c6.9,0.7,14.2,1.5,20.2,5.5
		c3.8,2.5,5.4,7.8,3.4,11.9c-3.4,8-10.2,13.9-17,19c-0.5,0.1-1.4,0.4-1.9,0.5c3.9-6.6,9.9-12.9,9.9-21.1
		c-0.2-6.2-5.8-10.4-11.3-12.1c-0.4,1.4,1.9,1.3,2.5,2.2c3.2,2.7,4,7.4,2.5,11.2c-3,7.9-9.5,13.9-15.9,19.2
		c-0.7,0.5-1.4,0.6-2.1,0.1c3.8-6,7.5-13.3,5.5-20.6c-2.2-7.3-9.5-11.4-16.3-13.6c-1.7-0.3-3.3-1.7-5-0.9
		c5.7,11.2,4.6,24.8-0.8,35.9c-0.3-0.2-1-0.7-1.3-0.9c-5.2-10.9-6.1-24.2-0.2-35l-1.1-0.4c-7.5,2.1-15.8,5.3-19.5,12.7
		c-3,5.9-0.8,12.8,2.1,18.3c0.8,1.7,2.4,3.2,2.2,5.2c-2.4-0.9-4-3-5.9-4.5c-5.2-5-10.8-10.6-12.3-18c-1-4.7,2.1-8.9,6.2-10.8
		c-4.6,0.6-8.9,3.8-10.9,8c-2.4,5.6,0.4,11.6,3.3,16.5c1.6,3.1,4.4,5.5,5.7,8.7c-2.6-0.4-4.3-2.6-6.3-4.1
		c-5.3-4.9-11.1-10-13.1-17.2C684.8,422.3,687.4,417.6,691.4,415.7z"/>
</g>
<g>
	<g>
		<path class="st9" d="M74,441.1c11.6-1.8,23.2-3.4,34.8-5l0.6,0.2c-0.5,7.5-1.6,14.9-3.5,22.1c-6.3,23.9-12.7,47.8-18.9,71.7
			c-2.2,10.4-5.5,21-3.7,31.8c-9.8-0.2-19.9,0.3-29.6-0.3c-0.4-1.6-0.6-3.2-0.8-4.8c-0.3,0-0.8,0.1-1.1,0.2
			c-6.3,5.7-15.2,7.2-23.4,7.1c-8.1-0.2-16.8-2.6-22.2-9.1c-5.8-6.9-6.6-16.5-6.1-25.2c1.3-17.4,8.3-35,21.9-46.4
			c9.4-8,22-11.6,34.3-11.5c4.2-0.1,8.1,1.5,11.9,2.8C70.7,463.6,73.8,452.6,74,441.1z M45.7,499.2c-7.1,8.9-9.2,20.6-10.6,31.6
			c-0.5,3.6-0.2,8.7,3.6,10.4c5.7,1.8,12.9-2.3,13.6-8.4c2.8-11.7,5.9-23.3,8.4-35C57,492.7,49.1,494.8,45.7,499.2z"/>
	</g>
	<path class="st9" d="M286.8,442.4c11.7-1.8,23.5-3.5,35.3-5.1c-0.7,13.9-4.6,27.3-7.9,40.7c9.8-6,21.9-6.9,33.1-5.5
		c5.5,0.8,11.5,2.9,14.3,8c3.1,5.6,2,12.3,0.7,18.3c-5,21-10,42-15.1,62.9c-11.2,0.6-22.7,0.1-34,0.2c4.8-20.1,9.9-40.1,14.6-60.1
		c0.4-2,1.2-5.1-1.4-6.1c-6.1-1.9-12.4,1.2-17.3,4.8c-5.2,20.3-9.8,40.8-15,61.2c-11.1,0.6-22.6,0.1-33.8,0.2
		c7.4-31.5,15.2-62.8,22.7-94.3C284.9,459.3,286.8,450.9,286.8,442.4z"/>
</g>
<g>
	<path class="st10" d="M706.6,450.2c20.2-0.2,40.4-0.4,60.5,0.1c1,3.1,1,7.1,0,10.2c-1.5,0.6-3.2,0.4-4.7,0.5c-17.7,0-35.4,0.1-53,0
		c-1.4-0.1-3.8-0.1-3.5-2.1C706.1,456,705,452.7,706.6,450.2z"/>
</g>
<g>
	<g>
		<path class="st11" d="M143.4,478c13.6-6.9,29.8-7.9,44.6-4.6c6.4,1.6,13,4.5,17.1,9.9c5.5,7.4,5.7,18.3,0.8,26
			c-4.6,7.6-12.6,12.2-20.8,15c-12,3.9-24.9,4.4-37.5,3.2c-0.7,4.6-1.4,10.9,3.2,13.8c7.2,3.3,15.5,1.7,22.8-0.2
			c5.5-1.3,10.4-4.3,15.6-6.2c2.1,6,4.2,12,6.4,18l-0.4,0.7c-15.8,7.3-33.4,12.4-50.9,10c-10.2-1-21.5-4.4-27-13.7
			c-5.5-9.7-4.8-21.5-2.9-32C117.5,501.1,128.1,485.7,143.4,478z M156.6,499c-1.5,2.6-3.2,5.5-3.1,8.6c6.5,1.4,13.9,0.8,19.3-3.3
			c3.3-2.4,4.2-8,0.4-10.3C167.6,490.7,159.8,493.5,156.6,499z"/>
	</g>
	<g>
		<path class="st11" d="M398.5,485.9c11.9-11.1,28.9-15.4,44.9-14.1c8.6,0.5,17.5,2.3,24.5,7.6c7.7,5.9,10,17.3,6.3,26.1
			c-2.9,7.3-9.1,12.7-16.1,16c-13.6,6.6-29.3,7.2-44.1,6c-0.6,5.1-1.1,12.7,5.1,14.6c11.4,2.8,23.4-0.9,33.5-6.1
			c1-0.3,2.1-1.6,3.2-1c2,6.1,4.3,12.1,6.3,18.1c-15.9,7.9-34,12.8-51.9,10.3c-7.9-0.9-16.1-3-22.2-8.4c-4.9-4.4-7.5-10.8-8.2-17.2
			C377.9,518.9,384.2,498.8,398.5,485.9z M427.3,494.6c-4.3,2.7-6.3,7.7-7.6,12.4c6.1,2.3,13.8,1.2,19.3-2.5
			c3.7-2.3,4.6-8.6,0.4-10.9C435.6,491.8,430.9,492.5,427.3,494.6z"/>
	</g>
	<path class="st11" d="M619.1,486.5c8.4-9.2,21.1-13.1,33.2-14.2c15.6-1.5,31.6,1.3,45.9,7.7c-4.8,6.3-10,12.4-15,18.6
		c-7.1-3.5-14.9-5.7-22.8-6.1c-3.8,0-8.9,1-10.2,5.2c-1,2.6,1.6,4.8,3.8,5.5c9.4,3.6,20.1,3.4,28.6,9.2c6.2,4,8.3,12.2,7.2,19.2
		c-1.5,8.4-7.1,15.6-13.8,20.8c-11.8,8.9-27.1,12-41.6,11.6c-13.5-0.7-27.1-4.3-38.9-11c4.3-5.7,8.8-11.2,13.2-16.8
		c0.9-0.8,1.3-2.5,2.7-2.5c9.1,5.2,19.5,8.6,30,8.7c4,0,8.8-1,11.3-4.4c1.8-2.6,0.6-6.3-2.3-7.4c-8.2-3.3-17.2-3.4-25.4-6.5
		c-5.6-2.2-10.6-6.5-12.2-12.4C610,503,612.9,493.1,619.1,486.5z"/>
	<path class="st11" d="M504.9,476.2c11.6-1.4,23.3-2.8,34.9-3.9c-4.8,19.8-9.7,39.6-14.4,59.5c-0.8,2.7-1.3,6.7,1.9,8
		c7.8,2.1,16.8-4,17.9-12c4.2-17.2,8.4-34.4,12.6-51.6c11.6-1.3,23.2-2.7,34.8-3.9c-3.7,15.9-7.7,31.7-11.5,47.5
		c-1.8,7.6-4,15.2-4.3,23c-0.1,4.4,0.8,8.8,1.7,13.2c-9.4,2.9-18.8,5.9-28.2,8.8c-1.2,0.2-2.4,1.1-3.7,0.8
		c-1.3-3.4-2.2-6.9-2.9-10.5c-11.4,7.9-26.1,10.7-39.6,8c-5.5-1.2-11.3-4-13.5-9.6c-2.3-6.4-0.7-13.3,0.5-19.8
		C495.6,514.5,500.5,495.4,504.9,476.2z"/>
</g>
<g>
	<path class="st12" d="M261.5,647.9c38.5-15.3,79.4-24.8,120.8-27.5c20.5-1.1,41.2-0.9,61.5,2.2c-0.8,1.1-1.7,2.2-2.6,3.3
		c-54.8-4.6-109.8,6.5-160.9,25.8c-19.9,7.5-39,17-57.3,27.7c-16.6,9.9-32.1,21.6-46.3,34.7c-2.7,2.3-4.9,5.5-7.9,7.3
		c-0.3-5.2-2.2-10.3-2.4-15.5C193.8,680.4,227,661.9,261.5,647.9z"/>
</g>
<g>
	<path class="st13" d="M443.9,622.6c19.8,2.9,39.4,8.1,57.1,17.5l0.1,0.7c-18.8-8.7-39.3-13-59.9-14.9
		C442.2,624.8,443,623.7,443.9,622.6z"/>
</g>
</svg>
