<?xml version="1.0" encoding="UTF-8"?>
<svg id="Layer_1" data-name="Layer 1" xmlns="http://www.w3.org/2000/svg" viewBox="0 0 1080.91 245.05">
  <defs>
    <style>
      .cls-1 {
        fill: #90c642;
      }

      .cls-2 {
        fill: #90c541;
      }

      .cls-3 {
        fill: #8fc843;
      }

      .cls-4 {
        fill: #1289d7;
      }

      .cls-5 {
        fill: #0879c0;
      }

      .cls-6 {
        fill: #8ca9d7;
      }

      .cls-7 {
        fill: #0679c0;
      }

      .cls-8 {
        fill: #8ca8d5;
      }

      .cls-9 {
        fill: #91c545;
      }

      .cls-10 {
        fill: #0078c1;
      }

      .cls-11 {
        fill: #0579c0;
      }

      .cls-12 {
        fill: #0779c3;
      }

      .cls-13 {
        fill: #8eacdd;
      }

      .cls-14 {
        fill: #92d037;
      }
    </style>
  </defs>
  <g>
    <path class="cls-2" d="M156.38,1.58c8.56-1.39,17.33-2.04,25.98-1.22,6.49.68,13.15,2.18,18.61,5.91,3.7,2.52,6.56,6.22,7.81,10.53,1.8,5.91,1.05,12.26-.48,18.14-1.05,3.84-2.45,7.57-3.94,11.24-.14-.51.07-.98.2-1.49,1.83-6.42,1.8-13.45-.51-19.77-1.87-5.16-5.5-9.61-9.92-12.84-5.71-4.18-12.53-6.59-19.4-8.09-6.18-1.29-12.47-2.07-18.78-2.18.1-.03.31-.17.41-.24h.02Z"/>
    <path class="cls-1" d="M128.66,7.8c8.26-1.25,16.64-1.9,25-1.73,7.54.14,15.12.95,22.35,3.09,5.26,1.56,10.36,3.91,14.54,7.51,4.01,3.39,6.93,8.05,8.19,13.15,1.77,6.86.98,14.1-.72,20.86-1.25,4.96-3.09,9.72-5.06,14.4l-.34.38c.72-5.74-.17-11.62-1.8-17.15-2.11-6.96-5.91-13.35-10.94-18.58-8.43-8.83-19.71-14.33-31.29-17.74-6.42-1.87-13.01-3.12-19.64-4.01l-.31-.17h.02Z"/>
    <path class="cls-10" d="M75.02,9.87c8.8,8.32,17.46,16.81,26.19,25.21,4.42,4.28,8.9,8.53,13.28,12.84l-.07.17c-3.29,1.9-6.59,3.84-9.89,5.74,4.72,4.72,9.37,9.51,14.07,14.27,3.02-1.97,6.08-3.87,9.1-5.81.34-.17.65-.51,1.05-.51,12.94,12.43,25.88,24.87,38.83,37.33l-.03.24c-9.34,8.93-21.1,15.18-33.56,18.51-16.1,4.28-33.49,3.94-49.32-1.36-12.06-4.04-23.27-11.04-31.42-20.93-4.39-5.26-7.81-11.35-9.96-17.87-2.48-7.54-3.16-15.63-1.94-23.48,1.73-11.41,7.4-22.01,15.29-30.37,5.33-5.64,11.58-10.36,18.38-14h0v.02Z"/>
    <path class="cls-3" d="M88.67,18.33c13.96-5.98,29.55-7.88,44.64-6.01,12.8,1.63,25.38,6.22,35.73,14,5.54,4.18,10.36,9.34,13.83,15.39,3.39,5.98,5.43,12.8,5.43,19.71.1,6.69-1.66,13.35-4.82,19.23-3.16,5.91-7.64,11.11-12.8,15.35-.34.2-.58.65-.98.68-12.37-11.96-24.76-23.91-37.16-35.87-.27-.34-.72-.58-.85-1.02,2.18-1.39,4.39-2.72,6.52-4.18-1.66-1.87-3.67-3.46-5.43-5.23-2.89-2.62-5.6-5.47-8.63-7.92-2.21,1.25-4.42,2.52-6.59,3.84-8.49-8.05-16.85-16.24-25.31-24.35-1.15-1.22-2.48-2.31-3.57-3.6h0v-.02Z"/>
    <path class="cls-5" d="M112.01,57.19c3.77-2.38,7.64-4.59,11.48-6.86l.27.07c2.35,2.18,4.65,4.42,6.99,6.59-2.04,1.53-4.35,2.75-6.46,4.15-1.73,1.02-3.36,2.18-5.16,3.12-2.41-2.31-4.76-4.69-7.13-7.06h.01Z"/>
    <path class="cls-4" d="M50.73,95.75c.61.41.88,1.12,1.39,1.63,4.11,5.43,9.31,9.99,14.91,13.76-.24.2-.68.31-.78.65.14.34.38.65.34,1.02-6.29-4.62-11.65-10.46-15.87-17.05h0Z"/>
    <path class="cls-12" d="M151.08,115.15c5.88-3.09,11.45-6.76,16.34-11.24-.14,2.79-.31,5.57-.55,8.36-10.56,8.56-23.61,13.73-36.99,15.73-21.94,3.22-45.38-1.77-63.25-15.15h0c0-.38-.2-.68-.34-1.02.1-.34.55-.44.78-.65,12.8,8.49,28.19,12.7,43.48,12.91,7.68,0,15.39-.61,22.83-2.48,6.08-1.63,12.1-3.57,17.7-6.46h0Z"/>
    <path class="cls-13" d="M249.22,136.21c1.12-.55,2.92-.14,3.19,1.29-.2,2-3.63,2.11-4.11.2-.2-.65.34-1.25.92-1.49h0Z"/>
    <path class="cls-6" d="M234.88,141.2c2.62-1.36,5.6-1.53,8.49-1.7,2.28,0,4.55-.14,6.79.1,3.06-.24,6.12-.17,9.17.03,2.35.24,4.82.51,6.86,1.87,1.29.85,1.83,2.65,1.15,4.04-1.15,2.72-3.46,4.72-5.78,6.46-.17.03-.48.14-.65.17,1.32-2.24,3.36-4.39,3.36-7.17-.07-2.11-1.97-3.53-3.84-4.11-.14.48.65.44.85.75,1.09.92,1.36,2.52.85,3.8-1.02,2.69-3.22,4.72-5.4,6.52-.24.17-.48.2-.72.03,1.29-2.04,2.55-4.52,1.87-6.99-.75-2.48-3.22-3.87-5.54-4.62-.58-.1-1.12-.58-1.7-.31,1.94,3.8,1.56,8.43-.27,12.2-.1-.07-.34-.24-.44-.31-1.77-3.7-2.07-8.22-.07-11.89l-.38-.14c-2.55.72-5.37,1.8-6.62,4.32-1.02,2-.27,4.35.72,6.22.27.58.82,1.09.75,1.77-.82-.31-1.36-1.02-2-1.53-1.77-1.7-3.67-3.6-4.18-6.12-.34-1.59.72-3.02,2.11-3.67-1.56.2-3.02,1.29-3.7,2.72-.82,1.9.14,3.94,1.12,5.6.55,1.05,1.49,1.87,1.94,2.95-.88-.14-1.46-.88-2.14-1.39-1.8-1.66-3.77-3.39-4.45-5.84-.41-1.53.48-3.12,1.83-3.77h.02Z"/>
    <g>
      <path class="cls-11" d="M25.15,149.83c3.94-.61,7.88-1.15,11.82-1.7l.2.07c-.17,2.55-.55,5.06-1.19,7.51-2.14,8.12-4.32,16.24-6.42,24.35-.75,3.53-1.87,7.13-1.25,10.8-3.33-.07-6.76.1-10.06-.1-.14-.55-.2-1.09-.27-1.63-.1,0-.27.03-.38.07-2.14,1.94-5.16,2.45-7.95,2.41-2.75-.07-5.71-.88-7.54-3.09-1.97-2.35-2.24-5.6-2.07-8.56.44-5.91,2.82-11.89,7.44-15.76,3.19-2.72,7.47-3.94,11.65-3.91,1.42-.03,2.75.51,4.04.95.85-3.77,1.9-7.51,1.97-11.41h.01ZM15.54,169.56c-2.41,3.02-3.12,6.99-3.6,10.73-.17,1.22-.07,2.95,1.22,3.53,1.94.61,4.39-.78,4.62-2.85.95-3.98,2-7.92,2.85-11.89-1.25-1.73-3.94-1.02-5.09.48h0Z"/>
      <path class="cls-11" d="M97.44,150.27c3.98-.61,7.98-1.19,11.99-1.73-.24,4.72-1.56,9.27-2.69,13.83,3.33-2.04,7.44-2.35,11.24-1.87,1.87.27,3.91.98,4.86,2.72,1.05,1.9.68,4.18.24,6.22-1.7,7.13-3.39,14.27-5.13,21.37-3.8.2-7.71.03-11.55.07,1.63-6.83,3.36-13.62,4.96-20.41.14-.68.41-1.73-.48-2.07-2.07-.65-4.21.41-5.88,1.63-1.77,6.89-3.33,13.86-5.09,20.79-3.77.2-7.68.03-11.48.07,2.52-10.7,5.16-21.33,7.71-32.03.65-2.82,1.29-5.67,1.29-8.56h0v-.03Z"/>
    </g>
    <path class="cls-8" d="M240.05,152.92c6.86-.07,13.73-.14,20.55.03.34,1.05.34,2.41,0,3.46-.51.2-1.09.14-1.59.17-6.01,0-12.03.03-18,0-.48-.03-1.29-.03-1.19-.72.07-.98-.31-2.11.24-2.95h0Z"/>
    <g>
      <path class="cls-7" d="M48.73,162.36c4.62-2.35,10.13-2.69,15.15-1.56,2.18.55,4.42,1.53,5.81,3.36,1.87,2.52,1.94,6.22.27,8.83-1.56,2.58-4.28,4.15-7.06,5.09-4.08,1.32-8.46,1.49-12.74,1.09-.24,1.56-.48,3.7,1.09,4.69,2.45,1.12,5.26.58,7.75-.07,1.87-.44,3.53-1.46,5.3-2.11.72,2.04,1.42,4.08,2.18,6.12l-.14.24c-5.37,2.48-11.35,4.21-17.29,3.39-3.46-.34-7.3-1.49-9.17-4.65-1.87-3.29-1.63-7.3-.98-10.87,1.05-5.71,4.65-10.94,9.85-13.55h-.02ZM53.21,169.49c-.51.88-1.09,1.87-1.05,2.92,2.21.48,4.72.27,6.56-1.12,1.12-.82,1.42-2.72.14-3.5-1.9-1.12-4.55-.17-5.64,1.7h-.01Z"/>
      <path class="cls-7" d="M135.39,165.04c4.04-3.77,9.82-5.23,15.25-4.79,2.92.17,5.95.78,8.32,2.58,2.62,2,3.39,5.88,2.14,8.86-.98,2.48-3.09,4.32-5.47,5.43-4.62,2.24-9.96,2.45-14.98,2.04-.2,1.73-.38,4.32,1.73,4.96,3.87.95,7.95-.31,11.38-2.07.34-.1.72-.55,1.09-.34.68,2.07,1.46,4.11,2.14,6.15-5.4,2.69-11.55,4.35-17.63,3.5-2.69-.31-5.47-1.02-7.54-2.85-1.66-1.49-2.55-3.67-2.79-5.84-.65-6.42,1.49-13.25,6.36-17.63h0ZM145.17,168c-1.46.92-2.14,2.62-2.58,4.21,2.07.78,4.69.41,6.56-.85,1.25-.78,1.56-2.92.14-3.7-1.29-.61-2.89-.38-4.11.34h-.01Z"/>
      <path class="cls-7" d="M210.32,165.25c2.85-3.12,7.17-4.45,11.28-4.82,5.3-.51,10.73.44,15.59,2.62-1.63,2.14-3.39,4.21-5.09,6.32-2.41-1.19-5.06-1.94-7.75-2.07-1.29,0-3.02.34-3.46,1.77-.34.88.55,1.63,1.29,1.87,3.19,1.22,6.83,1.15,9.72,3.12,2.11,1.36,2.82,4.15,2.45,6.52-.51,2.85-2.41,5.3-4.69,7.06-4.01,3.02-9.2,4.08-14.13,3.94-4.59-.24-9.2-1.46-13.21-3.74,1.46-1.94,2.99-3.8,4.49-5.71.31-.27.44-.85.92-.85,3.09,1.77,6.62,2.92,10.19,2.95,1.36,0,2.99-.34,3.84-1.49.61-.88.2-2.14-.78-2.52-2.79-1.12-5.84-1.15-8.63-2.21-1.9-.75-3.6-2.21-4.15-4.21-.95-2.95.03-6.32,2.14-8.56h-.02Z"/>
      <path class="cls-7" d="M171.53,161.75c3.94-.48,7.92-.95,11.86-1.32-1.63,6.73-3.29,13.45-4.89,20.21-.27.92-.44,2.28.65,2.72,2.65.72,5.71-1.36,6.08-4.08,1.42-5.84,2.85-11.69,4.28-17.53,3.94-.44,7.88-.92,11.82-1.32-1.25,5.4-2.62,10.77-3.91,16.14-.61,2.58-1.36,5.16-1.46,7.81-.03,1.49.27,2.99.58,4.49-3.19.98-6.39,2-9.58,2.99-.41.07-.82.38-1.25.27-.44-1.15-.75-2.35-.98-3.57-3.87,2.69-8.86,3.63-13.45,2.72-1.87-.41-3.84-1.36-4.59-3.26-.78-2.18-.24-4.52.17-6.73,1.53-6.52,3.19-13.01,4.69-19.54h-.02Z"/>
    </g>
    <path class="cls-9" d="M88.85,220.08c13.08-5.19,26.97-8.43,41.04-9.34,6.96-.38,14-.31,20.89.75-.27.38-.58.75-.88,1.12-18.61-1.56-37.3,2.21-54.65,8.76-6.76,2.55-13.25,5.78-19.47,9.41-5.64,3.36-10.9,7.34-15.73,11.79-.92.78-1.66,1.87-2.69,2.48-.1-1.77-.75-3.5-.82-5.26,9.31-8.66,20.58-14.95,32.3-19.71h.01Z"/>
    <path class="cls-14" d="M150.81,211.48c6.73.98,13.38,2.75,19.4,5.95l.03.24c-6.39-2.95-13.35-4.42-20.34-5.06.34-.38.61-.75.92-1.12h-.01Z"/>
  </g>
  <g>
    <path class="cls-10" d="M328.59,74.9c1.45,1.6,3.08,3,4.87,4.17,1.52,1.06,3.31,2.04,5.37,2.86,2.06.87,4.35,1.3,6.85,1.3,1.33,0,2.59-.19,3.83-.56s2.32-.9,3.24-1.6,1.67-1.55,2.25-2.59c.56-1.02.83-2.25.83-3.65,0-1.98-.8-3.68-2.44-5.06-1.64-1.4-3.68-2.71-6.17-3.92-2.5-1.23-5.16-2.5-8.03-3.8s-5.52-2.81-7.99-4.57c-2.5-1.76-4.53-3.89-6.17-6.42s-2.44-5.62-2.44-9.27c0-2.85.58-5.5,1.79-7.91s2.85-4.53,4.94-6.32,4.57-3.19,7.46-4.17c2.86-.99,6.02-1.48,9.42-1.48,2.06,0,4.33.24,6.77.73s4.72,1.3,6.82,2.44c2.1,1.14,3.85,2.56,5.28,4.33s2.13,3.89,2.13,6.42v6.58h-11.72v-3.19c0-.8-.27-1.55-.8-2.25s-1.26-1.26-2.16-1.72c-.9-.46-1.91-.83-3-1.07-1.11-.27-2.25-.41-3.46-.41-3,0-5.5.72-7.45,2.1-1.98,1.4-2.97,3.2-2.97,5.47,0,1.98.8,3.65,2.44,4.98s3.7,2.56,6.17,3.73c2.5,1.18,5.18,2.35,8.03,3.53s5.52,2.69,8.03,4.41c2.5,1.76,4.57,3.92,6.17,6.51,1.64,2.59,2.44,5.81,2.44,9.66,0,2.78-.53,5.44-1.6,7.96-1.06,2.54-2.59,4.72-4.57,6.61-1.98,1.89-4.45,3.39-7.38,4.53s-6.24,1.7-9.93,1.7c-3.99,0-7.46-.56-10.43-1.7-3-1.14-5.5-2.39-7.57-3.8-2.39-1.6-4.48-3.43-6.27-5.47l7.38-9.17.03.07v.02Z"/>
    <path class="cls-10" d="M381.43,56c0-1.45-.73-2.2-2.2-2.2h-3.99v-10.75h11.64c2.25,0,3.92.49,5.03,1.48s1.64,2.39,1.64,4.17v1.48c0,.34,0,.61-.07.83-.03.24-.07.46-.07.65v.72h.19c.58-1.26,1.41-2.54,2.44-3.8s2.25-2.39,3.68-3.39c1.41-.99,3-1.79,4.72-2.44,1.72-.61,3.58-.95,5.59-.95,7.69,0,12.63,3.49,14.83,10.43h.19c.65-1.4,1.55-2.71,2.69-3.99,1.11-1.26,2.44-2.39,3.92-3.34s3.15-1.72,4.98-2.28,3.73-.83,5.71-.83c5.32,0,9.42,1.55,12.29,4.64s4.33,7.96,4.33,14.64v19.77c0,1.45.73,2.2,2.2,2.2h3.89v10.75h-11.95c-2.39,0-4.11-.53-5.18-1.6-1.06-1.06-1.6-2.78-1.6-5.18v-23.5c0-1.45-.09-2.81-.24-4.04s-.49-2.28-.99-3.19-1.21-1.6-2.13-2.13-2.13-.8-3.58-.8c-3.19,0-5.83,1.14-7.91,3.43-2.1,2.28-3.49,5.03-4.23,8.21-.34.99-.56,2.04-.65,3.08s-.15,2.2-.15,3.39v22.29h-12.63v-30.26c0-1.4-.07-2.71-.19-3.92-.12-1.23-.46-2.32-.95-3.24s-1.21-1.67-2.1-2.2c-.9-.53-2.1-.8-3.65-.8-3.19,0-5.83,1.14-7.91,3.43-2.1,2.28-3.53,5.06-4.33,8.3-.53,2.13-.8,4.26-.8,6.36v22.29h-12.54v-37.81l.09.12h0Z"/>
    <path class="cls-10" d="M470.3,79.19c0-2.66.56-4.94,1.64-6.82,1.07-1.89,2.54-3.46,4.33-4.72s3.8-2.28,6.02-3.03c2.22-.77,4.45-1.36,6.66-1.72,2.22-.41,4.35-.65,6.36-.73,2.04-.09,3.73-.15,5.13-.15h1.6v-.41c0-3.61-.73-6.17-2.25-7.63-1.48-1.48-3.85-2.22-7.11-2.22-.58,0-1.26.07-2.04.15-.77.09-1.48.27-2.2.49s-1.3.58-1.79,1.06-.73,1.02-.73,1.7v2.69h-11.72v-5.37c0-2.4.73-4.29,2.2-5.67,1.45-1.4,3.19-2.44,5.18-3.19s4.04-1.21,6.15-1.41c2.1-.19,3.8-.31,5.13-.31,4.26,0,7.79.53,10.58,1.55,2.81,1.02,5.03,2.44,6.73,4.26,1.7,1.82,2.9,3.95,3.58,6.39.72,2.44,1.06,5.1,1.06,7.94v18.86c0,1.45.72,2.2,2.16,2.2h3.92v10.75h-11.33c-2.32,0-3.99-.56-4.98-1.64s-1.48-2.4-1.48-3.92v-1.6c0-.27.03-.46.09-.58h-.19c-.87,1.72-2.01,3.2-3.39,4.48-1.21,1.14-2.78,2.16-4.72,3.08s-4.35,1.4-7.23,1.4c-2.25,0-4.41-.34-6.51-1.06s-3.92-1.7-5.52-3.03-2.86-3-3.83-4.98c-.95-2.01-1.45-4.26-1.45-6.77h-.03v-.07ZM482.96,78.61c0,1.72.65,3.24,1.91,4.57s3.2,2.01,5.81,2.01c1.67,0,3.2-.41,4.67-1.21,1.41-.8,2.66-1.86,3.7-3.15,1.02-1.3,1.82-2.74,2.4-4.33.56-1.6.87-3.15.87-4.67v-1.21h-2.2c-1.67,0-3.49.09-5.47.24s-3.83.53-5.56,1.07-3.19,1.36-4.35,2.39-1.76,2.44-1.76,4.23l-.03.03v.03Z"/>
    <path class="cls-10" d="M531,56c0-1.45-.73-2.2-2.2-2.2h-3.99v-10.75h11.55c4.52,0,6.77,2.06,6.77,6.17v3c0,.53,0,.95-.07,1.3-.03.34-.07.65-.07.99-.07.34-.09.61-.09.9h.19c.58-1.79,1.4-3.49,2.39-5.06.99-1.6,2.2-3,3.58-4.17,1.4-1.21,2.97-2.13,4.69-2.78s3.54-.99,5.47-.99c.27,0,.56,0,.83.07.31.03.56.07.73.07.27.07.49.09.72.09v12.44c-.34,0-.61-.03-.9-.09-.34,0-.68,0-.99-.07-.34-.03-.73-.07-1.21-.07-1.33,0-2.69.19-4.07.58s-2.71,1.02-3.99,1.89-2.39,1.98-3.39,3.34-1.79,2.97-2.39,4.82c-.73,2.59-1.07,5.33-1.07,8.28v20.09h-12.54v-37.81l.03-.03h.02Z"/>
    <path class="cls-10" d="M572.2,53.1h-6.58v-10.07h6.85v-13.84h12.35v13.84h11.55v10.07h-11.55v20.5c0,2.13.37,3.8,1.07,5.03.73,1.23,1.6,2.2,2.62,2.86,1.02.72,2.13,1.14,3.27,1.36s2.16.31,3.03.31,1.41-.03,1.7-.09c.27,0,.46-.03.58-.09v11.06c-.34.07-.72.12-1.07.19-.34.07-.73.09-1.23.09h-1.55c-1.79,0-3.89-.19-6.32-.58-2.4-.41-4.72-1.26-6.92-2.59s-4.04-3.24-5.59-5.78c-1.52-2.54-2.28-5.9-2.28-10.16v-22.1h.07l-.02-.02Z"/>
    <path class="cls-10" d="M630.62,36.4c-.34-.87-.72-1.45-1.14-1.72-.43-.31-1.07-.46-1.94-.46h-1.79v-11.06h8.28c2.44,0,4.26.41,5.44,1.21s2.13,2.32,2.93,4.57l13.53,39.4c.34.99.65,2.1.99,3.27.34,1.21.61,2.32.9,3.39.27,1.21.53,2.4.8,3.68h.19c.27-1.26.53-2.5.8-3.68.27-1.06.56-2.2.9-3.39.34-1.21.65-2.28.99-3.27l13.53-39.4c.41-1.14.8-2.06,1.23-2.78.43-.73.95-1.33,1.6-1.79.61-.46,1.4-.77,2.25-.95.87-.15,1.91-.24,3.19-.24h8.37v11.06h-1.89c-.87,0-1.52.15-1.94.46s-.8.9-1.14,1.72l-21.08,57.43h-13.73l-21.22-57.43h0l-.03-.02Z"/>
    <path class="cls-10" d="M695.91,68.44c0-3.92.61-7.5,1.89-10.75s3.03-6.05,5.28-8.4,5.01-4.17,8.18-5.47,6.66-1.94,10.46-1.94,6.88.61,9.66,1.89c2.78,1.26,5.13,2.97,7.04,5.13,1.89,2.16,3.34,4.69,4.35,7.63.99,2.93,1.48,6.08,1.48,9.44,0,.41,0,.83-.07,1.36-.03.49-.09,1.02-.15,1.55-.07.58-.09,1.21-.09,1.79h-35.04c.53,4.52,2.25,7.91,5.13,10.19,2.9,2.28,6.27,3.43,10.09,3.43,2.06,0,3.92-.27,5.62-.83s3.2-1.21,4.53-1.94c1.45-.8,2.81-1.76,4.07-2.86l5.28,8.78c-1.6,1.45-3.43,2.74-5.5,3.89-1.72.92-3.85,1.79-6.39,2.59s-5.37,1.21-8.59,1.21c-4.19,0-7.96-.72-11.37-2.13-3.39-1.41-6.27-3.34-8.61-5.78-2.35-2.4-4.17-5.25-5.44-8.45s-1.89-6.61-1.89-10.19l.03-.09.02-.03ZM731.24,61.88c-.12-3.03-1.11-5.47-2.93-7.34s-4.02-2.81-6.58-2.81c-3.24,0-5.93.9-8.09,2.71-2.16,1.82-3.58,4.29-4.33,7.45h21.93Z"/>
    <path class="cls-10" d="M756.03,36.1c0-1.45-.73-2.2-2.2-2.2h-3.99v-10.75h12.05c4.52,0,6.77,2.22,6.77,6.66v17.81c0,.65,0,1.23-.07,1.72-.03.49-.07.95-.07,1.36-.07.46-.09.87-.09,1.21h.19c.58-1.21,1.41-2.4,2.5-3.65,1.06-1.23,2.35-2.32,3.83-3.24s3.19-1.7,5.03-2.28c1.86-.58,3.89-.9,6.08-.9,5.71,0,10.09,1.52,13.12,4.57,3.05,3.05,4.57,7.94,4.57,14.69v19.77c0,1.45.73,2.2,2.2,2.2h3.99v10.75h-12.05c-2.32,0-4.02-.53-5.06-1.6-1.06-1.06-1.6-2.78-1.6-5.18v-23.28c0-3.12-.56-5.62-1.64-7.5s-3.24-2.85-6.42-2.85c-3.39,0-6.31.99-8.71,2.93-2.4,1.94-4.11,4.52-5.03,7.63-.34.99-.56,2.04-.65,3.15s-.15,2.25-.15,3.43v23.28h-12.63v-57.73h.03-.02Z"/>
    <path class="cls-10" d="M820.5,56c0-1.45-.73-2.2-2.2-2.2h-3.99v-10.75h12.05c2.32,0,4.02.56,5.06,1.64s1.6,2.81,1.6,5.13v31.06c0,1.45.73,2.2,2.2,2.2h3.99v10.75h-12.05c-2.32,0-4.02-.53-5.06-1.6-1.06-1.06-1.6-2.78-1.6-5.18v-31.06.03-.02ZM821.11,23.16h10.96v11.64h-10.96v-11.64Z"/>
    <path class="cls-10" d="M844.8,68.44c0-3.58.61-6.97,1.89-10.19,1.26-3.2,3.08-6.05,5.47-8.45s5.28-4.35,8.71-5.78c3.43-1.41,7.31-2.13,11.71-2.13,1.67,0,3.54.19,5.67.56s4.14,1.02,6.02,1.91c1.89.9,3.49,2.1,4.79,3.54,1.3,1.48,1.94,3.31,1.94,5.52v5.96h-11.14v-2.78c0-.65-.24-1.26-.72-1.79s-1.07-.95-1.79-1.23c-.73-.31-1.52-.53-2.35-.72s-1.64-.24-2.44-.24c-2.2,0-4.23.41-6.05,1.21-1.82.8-3.43,1.89-4.79,3.27-1.36,1.4-2.4,3.05-3.15,5.01-.73,1.94-1.11,4.04-1.11,6.31,0,2.59.46,4.84,1.36,6.8s2.06,3.58,3.54,4.84c1.45,1.3,3.15,2.25,5.03,2.93,1.89.65,3.89.99,5.93.99s4.14-.34,5.98-1.06,3.46-1.48,4.79-2.35c1.6-.99,3.03-2.16,4.29-3.49l5.28,8.78c-1.52,1.72-3.36,3.24-5.47,4.57-1.79,1.14-4.04,2.16-6.73,3.15-2.69.95-5.74,1.45-9.2,1.45-4.17,0-7.96-.72-11.33-2.1s-6.27-3.27-8.64-5.67c-2.39-2.39-4.23-5.18-5.52-8.4s-1.94-6.7-1.94-10.41h-.03v-.02Z"/>
    <path class="cls-10" d="M902.8,36.1c0-1.45-.73-2.2-2.2-2.2h-3.99v-10.75h12.05c4.52,0,6.77,2.25,6.77,6.77v50.97c0,1.45.73,2.2,2.2,2.2h3.89v10.75h-11.95c-2.39,0-4.11-.53-5.18-1.6s-1.6-2.78-1.6-5.18v-50.93h.03l-.02-.02Z"/>
    <path class="cls-10" d="M926.98,68.44c0-3.92.61-7.5,1.89-10.75s3.03-6.05,5.28-8.4,5.01-4.17,8.18-5.47,6.66-1.94,10.46-1.94,6.88.61,9.66,1.89c2.78,1.26,5.13,2.97,7.04,5.13,1.89,2.16,3.34,4.69,4.35,7.63.99,2.93,1.48,6.08,1.48,9.44,0,.41,0,.83-.07,1.36-.03.49-.09,1.02-.15,1.55-.07.58-.09,1.21-.09,1.79h-35.04c.53,4.52,2.25,7.91,5.13,10.19,2.9,2.28,6.27,3.43,10.09,3.43,2.06,0,3.92-.27,5.62-.83s3.2-1.21,4.53-1.94c1.45-.8,2.81-1.76,4.07-2.86l5.28,8.78c-1.6,1.45-3.43,2.74-5.5,3.89-1.72.92-3.85,1.79-6.39,2.59s-5.37,1.21-8.59,1.21c-4.19,0-7.96-.72-11.37-2.13-3.39-1.41-6.27-3.34-8.61-5.78-2.35-2.4-4.17-5.25-5.44-8.45s-1.89-6.61-1.89-10.19l.03-.09.02-.03ZM962.33,61.88c-.12-3.03-1.11-5.47-2.93-7.34s-4.02-2.81-6.58-2.81c-3.24,0-5.93.9-8.09,2.71-2.16,1.82-3.58,4.29-4.33,7.45h21.93Z"/>
    <g>
      <g>
        <path class="cls-10" d="M327.65,144.56h-6.48v-11.06h30.57c3.19,0,6.12.41,8.79,1.21s5.01,1.98,6.92,3.53,3.43,3.46,4.53,5.71,1.64,4.84,1.64,7.75c0,1.98-.24,3.77-.73,5.37s-1.14,3.03-1.94,4.29-1.7,2.35-2.74,3.27c-1.02.92-2.06,1.67-3.15,2.2v.19c1.91.58,3.61,1.45,5.03,2.59s2.59,2.44,3.53,3.92,1.64,3.08,2.1,4.82.72,3.49.72,5.28c0,3.53-.65,6.58-1.94,9.17-1.3,2.59-3.05,4.72-5.32,6.42s-4.84,2.93-7.8,3.73-6.05,1.21-9.29,1.21h-17.64c-2.32,0-4.04-.53-5.13-1.6s-1.64-2.78-1.64-5.18v-52.79h0l-.02-.03ZM351.83,162.39c2.78,0,4.91-.87,6.36-2.62s2.2-3.89,2.2-6.42-.73-4.6-2.2-6.27-3.65-2.5-6.58-2.5h-10.96v17.81h11.18v.02ZM340.69,190.93c0,1.45.73,2.2,2.2,2.2h10.16c3.19,0,5.66-.95,7.38-2.86s2.59-4.38,2.59-7.38-.87-5.44-2.59-7.31c-1.72-1.89-4.17-2.85-7.38-2.85h-12.35v18.22-.02Z"/>
        <path class="cls-10" d="M383.66,178.8c0-3.85.73-7.41,2.2-10.72,1.45-3.27,3.43-6.08,5.9-8.4s5.4-4.14,8.79-5.47c3.36-1.33,6.97-1.98,10.84-1.98s7.46.65,10.87,1.98c3.39,1.33,6.36,3.15,8.83,5.47s4.45,5.13,5.9,8.4,2.2,6.85,2.2,10.72-.73,7.5-2.2,10.75-3.43,6.05-5.9,8.4c-2.47,2.35-5.44,4.17-8.83,5.47-3.43,1.3-7.04,1.94-10.87,1.94s-7.45-.65-10.84-1.94-6.31-3.12-8.79-5.47c-2.47-2.35-4.45-5.16-5.9-8.4s-2.2-6.82-2.2-10.75h0ZM396.33,178.8c0,2.39.41,4.53,1.21,6.48.8,1.91,1.89,3.58,3.24,4.98s2.97,2.47,4.79,3.24,3.77,1.14,5.83,1.14,4.02-.37,5.83-1.14c1.82-.77,3.46-1.86,4.84-3.24s2.5-3.05,3.31-4.98,1.21-4.07,1.21-6.48-.41-4.45-1.21-6.42c-.8-1.94-1.89-3.65-3.31-5.03s-3.03-2.47-4.84-3.24-3.77-1.14-5.83-1.14-4.02.37-5.83,1.14-3.43,1.86-4.79,3.24-2.44,3.05-3.24,5.03c-.8,1.94-1.21,4.11-1.21,6.42Z"/>
        <path class="cls-10" d="M445.69,178.8c0-3.85.73-7.41,2.2-10.72,1.45-3.27,3.43-6.08,5.9-8.4,2.47-2.32,5.4-4.14,8.79-5.47,3.36-1.33,6.97-1.98,10.84-1.98s7.46.65,10.87,1.98c3.39,1.33,6.36,3.15,8.83,5.47s4.45,5.13,5.9,8.4,2.2,6.85,2.2,10.72-.73,7.5-2.2,10.75-3.43,6.05-5.9,8.4-5.44,4.17-8.83,5.47c-3.43,1.3-7.04,1.94-10.87,1.94s-7.45-.65-10.84-1.94-6.31-3.12-8.79-5.47c-2.47-2.35-4.45-5.16-5.9-8.4s-2.2-6.82-2.2-10.75h0ZM458.32,178.8c0,2.39.41,4.53,1.21,6.48.8,1.91,1.89,3.58,3.24,4.98s2.97,2.47,4.79,3.24,3.77,1.14,5.83,1.14,4.02-.37,5.83-1.14c1.82-.77,3.46-1.86,4.84-3.24s2.5-3.05,3.31-4.98,1.21-4.07,1.21-6.48-.41-4.45-1.21-6.42c-.8-1.94-1.89-3.65-3.31-5.03s-3.03-2.47-4.84-3.24-3.77-1.14-5.83-1.14-4.02.37-5.83,1.14-3.43,1.86-4.79,3.24-2.44,3.05-3.24,5.03c-.8,1.94-1.21,4.11-1.21,6.42h0Z"/>
        <path class="cls-10" d="M512.34,146.45c0-1.45-.73-2.2-2.2-2.2h-3.99v-10.75h12.05c2.32,0,4.04.37,5.13,1.14s1.64,2.32,1.64,4.64v31.95h3.77c.8,0,1.67-.12,2.59-.34s1.67-.73,2.2-1.55l10.34-15.93h14.02l-12.85,19.05c-.99,1.45-1.89,2.5-2.69,3.19-.41.34-.77.58-1.07.8v.19c.34.19.72.46,1.07.8.34.34.72.73,1.14,1.23s.87,1.14,1.33,1.94l5.78,10.92c.41.73.9,1.23,1.48,1.48.58.27,1.48.41,2.69.41h3.39v10.75h-9.36c-2.13,0-3.73-.27-4.82-.8-1.11-.53-2.13-1.72-3.15-3.58l-8.45-15.93c-.53-.92-1.23-1.48-2.13-1.64s-1.72-.24-2.54-.24h-2.78v22.2h-12.63v-57.73h.03,0Z"/>
        <path class="cls-10" d="M568.16,166.36c0-1.45-.73-2.2-2.2-2.2h-3.99v-10.75h12.05c2.32,0,4.02.56,5.06,1.64,1.06,1.07,1.6,2.81,1.6,5.13v31.06c0,1.45.73,2.2,2.2,2.2h3.99v10.75h-12.05c-2.32,0-4.02-.53-5.06-1.6s-1.6-2.78-1.6-5.18v-31.06.03-.02ZM568.78,133.52h10.96v11.64h-10.96v-11.64Z"/>
        <path class="cls-10" d="M597.52,166.36c0-1.45-.73-2.2-2.2-2.2h-3.99v-10.75h11.64c2.25,0,3.92.49,5.03,1.48s1.64,2.39,1.64,4.17v1.48c0,.34,0,.61-.07.83-.03.24-.07.46-.07.65-.07.27-.09.49-.09.72h.19c.53-1.06,1.3-2.2,2.28-3.43s2.22-2.39,3.68-3.43,3.19-1.94,5.13-2.62,4.23-1.06,6.82-1.06c5.66,0,10,1.52,13.09,4.57s4.63,7.94,4.63,14.69v19.77c0,1.45.73,2.2,2.2,2.2h3.99v10.75h-12.05c-2.39,0-4.11-.53-5.18-1.6s-1.6-2.78-1.6-5.18v-23.28c0-3.12-.53-5.62-1.6-7.5s-3.19-2.85-6.36-2.85c-3.39,0-6.27.95-8.64,2.86s-4.04,4.41-4.98,7.46c-.68,2.01-.99,4.26-.99,6.77v23.28h-12.54v-37.81l.03.03v-.02Z"/>
        <path class="cls-10" d="M656.47,177.5c0-3.46.49-6.73,1.45-9.82s2.39-5.78,4.29-8.06,4.26-4.11,7.07-5.44,6.05-1.98,9.7-1.98c3,0,5.47.37,7.41,1.07,1.94.73,3.58,1.57,4.82,2.5,1.4,1.06,2.54,2.25,3.39,3.58h.19v-1.3c0-1.14.43-2.2,1.3-3.19s2.28-1.48,4.29-1.48h11.72v10.75h-3.89c-1.45,0-2.2.65-2.2,1.98v34.92c0,4.38-.77,8.09-2.35,11.08-1.55,3.03-3.61,5.5-6.12,7.41-2.54,1.91-5.37,3.31-8.55,4.17s-6.42,1.3-9.76,1.3-6.36-.41-9.54-1.21-6.02-1.89-8.45-3.2l3.89-10c1.21.65,2.56,1.23,4.07,1.7,1.26.46,2.74.87,4.48,1.21s3.54.49,5.47.49,3.73-.22,5.47-.65,3.24-1.14,4.57-2.13c1.33-.99,2.39-2.25,3.15-3.83.77-1.55,1.14-3.49,1.14-5.81v-4.17c0-.27.03-.56.09-.9h-.19c-1.52,2.13-3.43,3.8-5.67,4.91-2.25,1.14-5.06,1.7-8.45,1.7-3.65,0-6.88-.68-9.7-2.04s-5.21-3.2-7.16-5.59-3.43-5.06-4.41-8.15-1.48-6.39-1.48-9.92l-.03.07v.02ZM681.94,192.41c1.52,0,3-.24,4.41-.73s2.69-1.3,3.77-2.44c1.07-1.11,1.98-2.66,2.62-4.57s.99-4.29.99-7.14-.34-5.21-.99-7.11-1.57-3.39-2.74-4.52-2.5-1.91-4.02-2.32c-1.55-.43-3.15-.65-4.87-.65-3.85,0-6.8,1.26-8.79,3.83-2.04,2.54-3.03,5.96-3.03,10.26s1.07,8.09,3.24,11.03,5.28,4.35,9.42,4.35h0Z"/>
      </g>
      <g>
        <path class="cls-10" d="M751.09,185.26c1.45,1.6,3.08,3,4.87,4.17,1.52,1.06,3.31,2.04,5.37,2.86,2.06.87,4.35,1.3,6.85,1.3,1.33,0,2.59-.19,3.83-.56s2.32-.9,3.24-1.6,1.67-1.55,2.22-2.59.83-2.25.83-3.65c0-1.98-.8-3.68-2.44-5.06s-3.68-2.71-6.17-3.92c-2.5-1.23-5.16-2.5-7.99-3.8-2.85-1.3-5.52-2.81-7.99-4.57-2.5-1.76-4.53-3.89-6.17-6.42s-2.44-5.62-2.44-9.27c0-2.85.58-5.5,1.79-7.91,1.21-2.4,2.85-4.53,4.94-6.32s4.57-3.19,7.46-4.17,6.02-1.48,9.42-1.48c2.06,0,4.33.24,6.77.73s4.72,1.3,6.82,2.44,3.85,2.56,5.28,4.33,2.13,3.89,2.13,6.42v6.58h-11.72v-3.19c0-.8-.27-1.55-.8-2.25s-1.23-1.26-2.16-1.72c-.9-.46-1.91-.83-3-1.07-1.11-.27-2.25-.41-3.46-.41-3,0-5.5.72-7.45,2.1-1.98,1.4-2.97,3.2-2.97,5.47,0,1.98.8,3.65,2.44,4.98s3.7,2.56,6.17,3.73c2.5,1.18,5.18,2.35,8.03,3.53s5.52,2.69,8.03,4.41c2.5,1.76,4.57,3.92,6.17,6.51,1.64,2.59,2.44,5.81,2.44,9.66,0,2.78-.53,5.44-1.6,7.96-1.06,2.54-2.59,4.72-4.57,6.61-1.98,1.89-4.45,3.39-7.34,4.53-2.93,1.14-6.24,1.7-9.93,1.7-3.99,0-7.46-.56-10.43-1.7-3-1.14-5.5-2.39-7.57-3.8-2.39-1.6-4.48-3.43-6.27-5.47l7.38-9.17v.09Z"/>
        <path class="cls-10" d="M802.25,212.64c.65.46,1.41.87,2.28,1.21s1.82.49,2.86.49c1.72,0,3.31-.53,4.79-1.6s2.66-2.69,3.58-4.87l1.7-3.85-16.92-38.03c-.34-.73-.68-1.21-1.06-1.45s-.92-.34-1.64-.34h-1.48v-10.75h8.37c1.79,0,3.19.37,4.17,1.07.99.73,1.82,1.94,2.5,3.68l9.93,25.37c.53,1.4.95,2.85,1.3,4.38.19.8.37,1.6.49,2.39h.19c.12-.8.31-1.6.49-2.39.12-.73.31-1.48.49-2.25s.43-1.48.72-2.13l8.64-25.37c.58-1.72,1.45-2.97,2.54-3.68,1.07-.73,2.5-1.07,4.23-1.07h8.55v10.75h-1.48c-.73,0-1.3.12-1.72.34-.43.24-.8.72-1.14,1.45l-18.22,45.87c-1.79,4.57-4.35,7.94-7.65,10.07-3.34,2.13-6.85,3.19-10.65,3.19-1.98,0-3.77-.27-5.37-.8s-2.97-1.14-4.07-1.82c-1.26-.73-2.39-1.6-3.39-2.62l4.87-9.01c.65.65,1.36,1.26,2.1,1.79v.03l-.02-.03Z"/>
        <path class="cls-10" d="M858.69,188.03c1.26,1.4,2.69,2.66,4.29,3.8,1.33.92,2.93,1.79,4.79,2.54,1.86.77,3.89,1.14,6.08,1.14,1.91,0,3.54-.41,4.87-1.21s1.98-2.06,1.98-3.77c0-1.21-.65-2.22-1.98-3.08-1.33-.87-3-1.7-4.98-2.54s-4.14-1.7-6.42-2.62-4.41-2.06-6.42-3.43c-1.98-1.36-3.65-3-4.98-4.87s-1.98-4.19-1.98-6.92c0-2.54.53-4.72,1.6-6.58,1.06-1.86,2.5-3.39,4.29-4.64,1.79-1.23,3.89-2.13,6.27-2.74s4.91-.9,7.57-.9c1.72,0,3.61.15,5.67.49s3.99.9,5.78,1.7,3.31,1.89,4.53,3.27c1.23,1.4,1.86,3.08,1.86,5.16v5.28h-11.14v-2.5c0-1.21-.72-2.1-2.13-2.69s-2.81-.9-4.19-.9c-2.25,0-4.04.37-5.44,1.14s-2.06,1.91-2.06,3.43c0,1.33.65,2.44,1.98,3.34,1.33.9,2.97,1.72,4.98,2.47,1.98.77,4.14,1.57,6.48,2.44s4.52,1.94,6.48,3.2,3.65,2.86,4.98,4.75,1.98,4.23,1.98,7c0,2.39-.49,4.53-1.48,6.46s-2.39,3.54-4.14,4.87-3.83,2.35-6.17,3.08c-2.35.73-4.94,1.07-7.72,1.07-3.53,0-6.61-.46-9.27-1.4s-4.84-1.94-6.58-3.08c-2.13-1.33-3.89-2.85-5.28-4.57l5.96-8.28-.07.03.02.03Z"/>
        <path class="cls-10" d="M905.24,163.46h-6.58v-10.07h6.85v-13.84h12.35v13.84h11.55v10.07h-11.55v20.5c0,2.13.37,3.8,1.07,5.03.73,1.23,1.6,2.2,2.62,2.86s2.13,1.14,3.27,1.36c1.18.19,2.16.31,3.03.31s1.41-.03,1.7-.09c.24,0,.46-.03.58-.09v11.06c-.34.07-.72.12-1.07.19-.34.07-.73.09-1.23.09h-1.55c-1.79,0-3.89-.19-6.32-.58s-4.72-1.26-6.92-2.59-4.04-3.24-5.56-5.78c-1.55-2.54-2.28-5.9-2.28-10.16v-22.1h.03l-.02-.02Z"/>
        <path class="cls-10" d="M936.8,178.8c0-3.92.65-7.5,1.89-10.75,1.26-3.24,3.03-6.05,5.28-8.4,2.25-2.35,5.01-4.17,8.18-5.47s6.66-1.94,10.46-1.94,6.88.61,9.66,1.89c2.81,1.26,5.13,2.97,7.04,5.13,1.89,2.16,3.34,4.69,4.35,7.63.99,2.93,1.48,6.08,1.48,9.44,0,.41,0,.83-.07,1.36-.03.49-.09,1.02-.15,1.55-.07.58-.09,1.21-.09,1.79h-35.04c.53,4.52,2.25,7.91,5.13,10.19s6.27,3.43,10.09,3.43c2.06,0,3.92-.27,5.62-.83s3.2-1.21,4.53-1.94c1.45-.8,2.81-1.76,4.07-2.86l5.28,8.78c-1.6,1.45-3.43,2.74-5.5,3.89-1.72.92-3.85,1.79-6.39,2.59s-5.37,1.21-8.59,1.21c-4.19,0-7.96-.72-11.37-2.13s-6.27-3.34-8.61-5.78c-2.35-2.4-4.17-5.25-5.44-8.45s-1.89-6.61-1.89-10.19l.03-.09.02-.03ZM972.12,172.24c-.12-3.03-1.11-5.47-2.93-7.34s-4.02-2.81-6.58-2.81c-3.24,0-5.93.9-8.09,2.71-2.13,1.82-3.58,4.29-4.33,7.45h21.93Z"/>
        <path class="cls-10" d="M997.31,166.36c0-1.45-.73-2.2-2.2-2.2h-3.99v-10.75h11.64c2.25,0,3.92.49,5.03,1.48s1.64,2.39,1.64,4.17v1.48c0,.34,0,.61-.07.83-.03.24-.07.46-.07.65v.72h.19c.58-1.26,1.41-2.54,2.44-3.8,1.02-1.26,2.25-2.39,3.68-3.39,1.41-.99,3-1.79,4.72-2.44,1.72-.61,3.58-.95,5.59-.95,7.69,0,12.63,3.49,14.83,10.43h.19c.65-1.4,1.55-2.71,2.69-3.99s2.44-2.39,3.92-3.34,3.15-1.72,4.98-2.28,3.73-.83,5.71-.83c5.32,0,9.42,1.55,12.29,4.64s4.33,7.96,4.33,14.64v19.77c0,1.45.73,2.2,2.2,2.2h3.89v10.75h-11.95c-2.39,0-4.11-.53-5.18-1.6s-1.6-2.78-1.6-5.18v-23.5c0-1.45-.09-2.81-.24-4.04s-.49-2.28-.99-3.19-1.21-1.6-2.13-2.13-2.13-.8-3.58-.8c-3.19,0-5.83,1.14-7.91,3.43-2.1,2.28-3.49,5.03-4.23,8.21-.34.99-.56,2.04-.65,3.08s-.15,2.2-.15,3.39v22.29h-12.63v-30.26c0-1.4-.07-2.71-.19-3.92-.12-1.23-.43-2.32-.95-3.24-.49-.92-1.21-1.67-2.1-2.2-.9-.53-2.1-.8-3.65-.8-3.19,0-5.83,1.14-7.91,3.43-2.1,2.28-3.53,5.06-4.33,8.3-.53,2.13-.8,4.26-.8,6.36v22.29h-12.54v-37.81l.09.12h0Z"/>
      </g>
    </g>
  </g>
</svg>