<?xml version="1.0" encoding="UTF-8"?>
<svg id="Layer_1" data-name="Layer 1" xmlns="http://www.w3.org/2000/svg" viewBox="0 0 487.36 477.48">
  <defs>
    <style>
      .cls-1 {
        fill: #046eb6;
      }

      .cls-2 {
        fill: #90c642;
      }

      .cls-3 {
        fill: #90c541;
      }

      .cls-4 {
        fill: #8fc843;
      }

      .cls-5 {
        fill: #1289d7;
      }

      .cls-6 {
        fill: #0879c0;
      }

      .cls-7 {
        fill: #fff;
      }

      .cls-8 {
        fill: #8ca9d7;
      }

      .cls-9 {
        fill: #0679c0;
      }

      .cls-10 {
        fill: #8ca8d5;
      }

      .cls-11 {
        fill: #91c545;
      }

      .cls-12 {
        fill: #0078c1;
      }

      .cls-13 {
        fill: #0579c0;
      }

      .cls-14 {
        fill: #0779c3;
      }

      .cls-15 {
        fill: #8eacdd;
      }

      .cls-16 {
        fill: #92d037;
      }
    </style>
  </defs>
  <g>
    <path class="cls-3" d="M299.45,89.4c13.65-2.22,27.62-3.25,41.42-1.95,10.34,1.08,20.96,3.47,29.67,9.42,5.9,4.01,10.45,9.91,12.45,16.79,2.87,9.42,1.68,19.55-.76,28.91-1.68,6.12-3.9,12.07-6.28,17.92-.22-.81.11-1.57.32-2.38,2.92-10.23,2.87-21.44-.81-31.51-2.98-8.23-8.77-15.32-15.81-20.47-9.1-6.66-19.98-10.5-30.92-12.89-9.85-2.06-19.87-3.3-29.94-3.47.16-.05.49-.27.65-.38Z"/>
    <path class="cls-2" d="M255.27,99.31c13.16-2,26.53-3.03,39.85-2.76,12.02.22,24.1,1.52,35.63,4.93,8.39,2.49,16.52,6.23,23.18,11.97,6.39,5.41,11.05,12.83,13.05,20.96,2.82,10.94,1.57,22.47-1.14,33.25-2,7.91-4.93,15.49-8.07,22.96l-.54.6c1.14-9.15-.27-18.52-2.87-27.34-3.36-11.1-9.42-21.28-17.44-29.62-13.43-14.08-31.41-22.85-49.87-28.27-10.23-2.98-20.74-4.98-31.3-6.39l-.49-.27Z"/>
    <path class="cls-12" d="M169.77,102.61c14.02,13.27,27.83,26.8,41.75,40.18,7.04,6.82,14.19,13.59,21.17,20.47l-.11.27c-5.25,3.03-10.5,6.12-15.76,9.15,7.53,7.53,14.94,15.16,22.42,22.74,4.82-3.14,9.69-6.17,14.51-9.26.54-.27,1.03-.81,1.68-.81,20.63,19.82,41.26,39.64,61.89,59.51l-.05.38c-14.89,14.24-33.63,24.2-53.5,29.51-25.67,6.82-53.39,6.28-78.62-2.17-19.22-6.44-37.09-17.6-50.09-33.36-6.99-8.39-12.45-18.09-15.87-28.48-3.95-12.02-5.04-24.91-3.09-37.42,2.76-18.19,11.8-35.09,24.37-48.41,8.5-8.99,18.46-16.52,29.29-22.31Z"/>
    <path class="cls-4" d="M191.53,116.1c22.25-9.53,47.11-12.56,71.15-9.58,20.41,2.6,40.45,9.91,56.96,22.31,8.83,6.66,16.52,14.89,22.04,24.53,5.41,9.53,8.66,20.41,8.66,31.41.16,10.67-2.65,21.28-7.69,30.65-5.04,9.42-12.18,17.71-20.41,24.47-.54.32-.92,1.03-1.57,1.08-19.71-19.06-39.47-38.12-59.24-57.18-.43-.54-1.14-.92-1.35-1.62,3.47-2.22,6.99-4.33,10.4-6.66-2.65-2.98-5.85-5.52-8.66-8.34-4.6-4.17-8.93-8.72-13.75-12.62-3.52,2-7.04,4.01-10.5,6.12-13.54-12.83-26.86-25.88-40.34-38.82-1.84-1.95-3.95-3.68-5.69-5.74Z"/>
    <path class="cls-6" d="M228.73,178.04c6.01-3.79,12.18-7.31,18.3-10.94l.43.11c3.74,3.47,7.42,7.04,11.15,10.5-3.25,2.44-6.93,4.39-10.29,6.61-2.76,1.62-5.36,3.47-8.23,4.98-3.84-3.68-7.58-7.47-11.37-11.26Z"/>
    <path class="cls-5" d="M131.05,239.5c.97.65,1.41,1.79,2.22,2.6,6.55,8.66,14.84,15.92,23.77,21.93-.38.32-1.08.49-1.25,1.03.22.54.6,1.03.54,1.62-10.02-7.36-18.57-16.68-25.29-27.18Z"/>
    <path class="cls-14" d="M291,270.42c9.37-4.93,18.25-10.78,26.05-17.92-.22,4.44-.49,8.88-.87,13.32-16.84,13.65-37.63,21.88-58.97,25.07-34.98,5.14-72.34-2.82-100.82-24.15h0c0-.6-.32-1.08-.54-1.62.16-.54.87-.7,1.25-1.03,20.41,13.54,44.94,20.25,69.31,20.58,12.24,0,24.53-.97,36.39-3.95,9.69-2.6,19.28-5.69,28.21-10.29Z"/>
    <path class="cls-15" d="M447.44,303.99c1.79-.87,4.66-.22,5.09,2.06-.32,3.19-5.79,3.36-6.55.32-.32-1.03.54-2,1.46-2.38Z"/>
    <path class="cls-8" d="M424.59,311.95c4.17-2.17,8.93-2.44,13.54-2.71,3.63,0,7.26-.22,10.83.16,4.87-.38,9.75-.27,14.62.05,3.74.38,7.69.81,10.94,2.98,2.06,1.35,2.92,4.22,1.84,6.44-1.84,4.33-5.52,7.53-9.21,10.29-.27.05-.76.22-1.03.27,2.11-3.57,5.36-6.99,5.36-11.43-.11-3.36-3.14-5.63-6.12-6.55-.22.76,1.03.7,1.35,1.19,1.73,1.46,2.17,4.01,1.35,6.06-1.62,4.28-5.14,7.53-8.61,10.4-.38.27-.76.32-1.14.05,2.06-3.25,4.06-7.2,2.98-11.15-1.19-3.95-5.14-6.17-8.83-7.36-.92-.16-1.79-.92-2.71-.49,3.09,6.06,2.49,13.43-.43,19.44-.16-.11-.54-.38-.7-.49-2.82-5.9-3.3-13.1-.11-18.95l-.6-.22c-4.06,1.14-8.56,2.87-10.56,6.88-1.62,3.19-.43,6.93,1.14,9.91.43.92,1.3,1.73,1.19,2.82-1.3-.49-2.17-1.62-3.19-2.44-2.82-2.71-5.85-5.74-6.66-9.75-.54-2.54,1.14-4.82,3.36-5.85-2.49.32-4.82,2.06-5.9,4.33-1.3,3.03.22,6.28,1.79,8.93.87,1.68,2.38,2.98,3.09,4.71-1.41-.22-2.33-1.41-3.41-2.22-2.87-2.65-6.01-5.41-7.09-9.31-.65-2.44.76-4.98,2.92-6.01Z"/>
    <g>
      <path class="cls-13" d="M90.28,325.7c6.28-.97,12.56-1.84,18.84-2.71l.32.11c-.27,4.06-.87,8.07-1.9,11.97-3.41,12.94-6.88,25.88-10.23,38.82-1.19,5.63-2.98,11.37-2,17.22-5.31-.11-10.78.16-16.03-.16-.22-.87-.32-1.73-.43-2.6-.16,0-.43.05-.6.11-3.41,3.09-8.23,3.9-12.67,3.84-4.39-.11-9.1-1.41-12.02-4.93-3.14-3.74-3.57-8.93-3.3-13.65.7-9.42,4.49-18.95,11.86-25.12,5.09-4.33,11.91-6.28,18.57-6.23,2.27-.05,4.39.81,6.44,1.52,1.35-6.01,3.03-11.97,3.14-18.19ZM74.95,357.16c-3.84,4.82-4.98,11.15-5.74,17.11-.27,1.95-.11,4.71,1.95,5.63,3.09.97,6.99-1.25,7.36-4.55,1.52-6.34,3.19-12.62,4.55-18.95-2-2.76-6.28-1.62-8.12.76Z"/>
      <path class="cls-13" d="M205.5,326.41c6.34-.97,12.72-1.9,19.11-2.76-.38,7.53-2.49,14.78-4.28,22.04,5.31-3.25,11.86-3.74,17.92-2.98,2.98.43,6.23,1.57,7.74,4.33,1.68,3.03,1.08,6.66.38,9.91-2.71,11.37-5.41,22.74-8.18,34.06-6.06.32-12.29.05-18.41.11,2.6-10.88,5.36-21.71,7.91-32.54.22-1.08.65-2.76-.76-3.3-3.3-1.03-6.71.65-9.37,2.6-2.82,10.99-5.31,22.09-8.12,33.14-6.01.32-12.24.05-18.3.11,4.01-17.06,8.23-34,12.29-51.06,1.03-4.49,2.06-9.04,2.06-13.65Z"/>
    </g>
    <path class="cls-10" d="M432.82,330.63c10.94-.11,21.88-.22,32.76.05.54,1.68.54,3.84,0,5.52-.81.32-1.73.22-2.54.27-9.58,0-19.17.05-28.7,0-.76-.05-2.06-.05-1.9-1.14.11-1.57-.49-3.36.38-4.71Z"/>
    <g>
      <path class="cls-9" d="M127.86,345.68c7.36-3.74,16.14-4.28,24.15-2.49,3.47.87,7.04,2.44,9.26,5.36,2.98,4.01,3.09,9.91.43,14.08-2.49,4.12-6.82,6.61-11.26,8.12-6.5,2.11-13.48,2.38-20.31,1.73-.38,2.49-.76,5.9,1.73,7.47,3.9,1.79,8.39.92,12.35-.11,2.98-.7,5.63-2.33,8.45-3.36,1.14,3.25,2.27,6.5,3.47,9.75l-.22.38c-8.56,3.95-18.09,6.71-27.56,5.41-5.52-.54-11.64-2.38-14.62-7.42-2.98-5.25-2.6-11.64-1.57-17.33,1.68-9.1,7.42-17.44,15.7-21.6ZM135,357.05c-.81,1.41-1.73,2.98-1.68,4.66,3.52.76,7.53.43,10.45-1.79,1.79-1.3,2.27-4.33.22-5.58-3.03-1.79-7.26-.27-8.99,2.71Z"/>
      <path class="cls-9" d="M265.99,349.96c6.44-6.01,15.65-8.34,24.31-7.63,4.66.27,9.48,1.25,13.27,4.12,4.17,3.19,5.41,9.37,3.41,14.13-1.57,3.95-4.93,6.88-8.72,8.66-7.36,3.57-15.87,3.9-23.88,3.25-.32,2.76-.6,6.88,2.76,7.91,6.17,1.52,12.67-.49,18.14-3.3.54-.16,1.14-.87,1.73-.54,1.08,3.3,2.33,6.55,3.41,9.8-8.61,4.28-18.41,6.93-28.1,5.58-4.28-.49-8.72-1.62-12.02-4.55-2.65-2.38-4.06-5.85-4.44-9.31-1.03-10.23,2.38-21.12,10.13-28.1ZM281.58,354.67c-2.33,1.46-3.41,4.17-4.12,6.71,3.3,1.25,7.47.65,10.45-1.35,2-1.25,2.49-4.66.22-5.9-2.06-.97-4.6-.6-6.55.54Z"/>
      <path class="cls-9" d="M385.44,350.29c4.55-4.98,11.43-7.09,17.98-7.69,8.45-.81,17.11.7,24.85,4.17-2.6,3.41-5.41,6.71-8.12,10.07-3.84-1.9-8.07-3.09-12.35-3.3-2.06,0-4.82.54-5.52,2.82-.54,1.41.87,2.6,2.06,2.98,5.09,1.95,10.88,1.84,15.49,4.98,3.36,2.17,4.49,6.61,3.9,10.4-.81,4.55-3.84,8.45-7.47,11.26-6.39,4.82-14.67,6.5-22.53,6.28-7.31-.38-14.67-2.33-21.06-5.96,2.33-3.09,4.76-6.06,7.15-9.1.49-.43.7-1.35,1.46-1.35,4.93,2.82,10.56,4.66,16.24,4.71,2.17,0,4.76-.54,6.12-2.38.97-1.41.32-3.41-1.25-4.01-4.44-1.79-9.31-1.84-13.75-3.52-3.03-1.19-5.74-3.52-6.61-6.71-1.52-4.71.05-10.07,3.41-13.65Z"/>
      <path class="cls-9" d="M323.6,344.71c6.28-.76,12.62-1.52,18.9-2.11-2.6,10.72-5.25,21.44-7.8,32.22-.43,1.46-.7,3.63,1.03,4.33,4.22,1.14,9.1-2.17,9.69-6.5,2.27-9.31,4.55-18.63,6.82-27.94,6.28-.7,12.56-1.46,18.84-2.11-2,8.61-4.17,17.16-6.23,25.72-.97,4.12-2.17,8.23-2.33,12.45-.05,2.38.43,4.76.92,7.15-5.09,1.57-10.18,3.19-15.27,4.76-.65.11-1.3.6-2,.43-.7-1.84-1.19-3.74-1.57-5.69-6.17,4.28-14.13,5.79-21.44,4.33-2.98-.65-6.12-2.17-7.31-5.2-1.25-3.47-.38-7.2.27-10.72,2.44-10.4,5.09-20.74,7.47-31.14Z"/>
    </g>
    <path class="cls-11" d="M191.81,437.68c20.85-8.28,42.99-13.43,65.41-14.89,11.1-.6,22.31-.49,33.3,1.19-.43.6-.92,1.19-1.41,1.79-29.67-2.49-59.45,3.52-87.12,13.97-10.78,4.06-21.12,9.21-31.03,15-8.99,5.36-17.38,11.7-25.07,18.79-1.46,1.25-2.65,2.98-4.28,3.95-.16-2.82-1.19-5.58-1.3-8.39,14.84-13.81,32.81-23.83,51.49-31.41Z"/>
    <path class="cls-16" d="M290.57,423.98c10.72,1.57,21.33,4.39,30.92,9.48l.05.38c-10.18-4.71-21.28-7.04-32.43-8.07.54-.6.97-1.19,1.46-1.79Z"/>
  </g>
  <g>
    <rect class="cls-1" width="487.36" height="43.32"/>
    <g>
      <path class="cls-7" d="M11.98,26.34c.47.52,1,.97,1.58,1.35.49.34,1.07.66,1.74.93.67.28,1.41.42,2.22.42.43,0,.84-.06,1.24-.18.4-.12.75-.29,1.05-.52s.54-.5.73-.84c.18-.33.27-.73.27-1.18,0-.64-.26-1.19-.79-1.64-.53-.45-1.19-.88-2-1.27-.81-.4-1.67-.81-2.6-1.23s-1.79-.91-2.59-1.48c-.81-.57-1.47-1.26-2-2.08-.53-.82-.79-1.82-.79-3,0-.92.19-1.78.58-2.56.39-.78.92-1.47,1.6-2.05.68-.58,1.48-1.03,2.42-1.35.93-.32,1.95-.48,3.05-.48.67,0,1.4.08,2.19.24s1.53.42,2.21.79c.68.37,1.25.83,1.71,1.4.46.57.69,1.26.69,2.08v2.13h-3.8v-1.03c0-.26-.09-.5-.26-.73-.17-.23-.41-.41-.7-.56-.29-.15-.62-.27-.97-.35-.36-.09-.73-.13-1.12-.13-.97,0-1.78.23-2.41.68-.64.45-.96,1.04-.96,1.77,0,.64.26,1.18.79,1.61.53.43,1.2.83,2,1.21.81.38,1.68.76,2.6,1.14s1.79.87,2.6,1.43c.81.57,1.48,1.27,2,2.11.53.84.79,1.88.79,3.13,0,.9-.17,1.76-.52,2.58-.34.82-.84,1.53-1.48,2.14-.64.61-1.44,1.1-2.39,1.47-.95.37-2.02.55-3.22.55-1.29,0-2.42-.18-3.38-.55-.97-.37-1.78-.77-2.45-1.23-.77-.52-1.45-1.11-2.03-1.77l2.39-2.97Z"/>
      <path class="cls-7" d="M29.1,20.22c0-.47-.24-.71-.71-.71h-1.29v-3.48h3.77c.73,0,1.27.16,1.63.48s.53.77.53,1.35v.48c0,.11,0,.2-.02.27-.01.08-.02.15-.02.21v.23h.06c.19-.41.46-.82.79-1.23.33-.41.73-.77,1.19-1.1.46-.32.97-.58,1.53-.79.56-.2,1.16-.31,1.81-.31,2.49,0,4.09,1.13,4.8,3.38h.06c.21-.45.5-.88.87-1.29.36-.41.79-.77,1.27-1.08.48-.31,1.02-.56,1.61-.74.59-.18,1.21-.27,1.85-.27,1.72,0,3.05.5,3.98,1.5.93,1,1.4,2.58,1.4,4.74v6.4c0,.47.24.71.71.71h1.26v3.48h-3.87c-.77,0-1.33-.17-1.68-.52-.34-.34-.52-.9-.52-1.68v-7.61c0-.47-.03-.91-.08-1.31-.05-.4-.16-.74-.32-1.03s-.39-.52-.69-.69c-.3-.17-.69-.26-1.16-.26-1.03,0-1.89.37-2.56,1.11-.68.74-1.13,1.63-1.37,2.66-.11.32-.18.66-.21,1-.03.34-.05.71-.05,1.1v7.22h-4.09v-9.8c0-.45-.02-.88-.06-1.27-.04-.4-.15-.75-.31-1.05-.16-.3-.39-.54-.68-.71-.29-.17-.68-.26-1.18-.26-1.03,0-1.89.37-2.56,1.11-.68.74-1.14,1.64-1.4,2.69-.17.69-.26,1.38-.26,2.06v7.22h-4.06v-12.25Z"/>
      <path class="cls-7" d="M57.88,27.73c0-.86.18-1.6.53-2.21.35-.61.82-1.12,1.4-1.53.58-.41,1.23-.74,1.95-.98.72-.25,1.44-.44,2.16-.56.72-.13,1.41-.21,2.06-.24.66-.03,1.21-.05,1.66-.05h.52v-.13c0-1.17-.24-2-.73-2.47-.48-.48-1.25-.72-2.3-.72-.19,0-.41.02-.66.05-.25.03-.48.09-.71.16s-.42.19-.58.34-.24.33-.24.55v.87h-3.8v-1.74c0-.78.24-1.39.71-1.84.47-.45,1.03-.79,1.68-1.03.65-.24,1.31-.39,1.99-.46.68-.06,1.23-.1,1.66-.1,1.38,0,2.52.17,3.43.5s1.63.79,2.18,1.38.94,1.28,1.16,2.07c.23.79.34,1.65.34,2.57v6.11c0,.47.23.71.7.71h1.27v3.48h-3.67c-.75,0-1.29-.18-1.61-.53s-.48-.78-.48-1.27v-.52c0-.09.01-.15.03-.19h-.06c-.28.56-.65,1.04-1.1,1.45-.39.37-.9.7-1.53,1s-1.41.45-2.34.45c-.73,0-1.43-.11-2.11-.34-.68-.23-1.27-.55-1.79-.98-.52-.43-.93-.97-1.24-1.61-.31-.65-.47-1.38-.47-2.19ZM61.98,27.54c0,.56.21,1.05.62,1.48.41.43,1.04.65,1.88.65.54,0,1.04-.13,1.51-.39.46-.26.86-.6,1.2-1.02.33-.42.59-.89.78-1.4.18-.52.28-1.02.28-1.51v-.39h-.71c-.54,0-1.13.03-1.77.08-.64.05-1.24.17-1.8.35s-1.03.44-1.41.77c-.38.33-.57.79-.57,1.37Z"/>
      <path class="cls-7" d="M77.54,20.22c0-.47-.24-.71-.71-.71h-1.29v-3.48h3.74c1.46,0,2.19.67,2.19,2v.97c0,.17,0,.31-.02.42-.01.11-.02.21-.02.32-.02.11-.03.2-.03.29h.06c.19-.58.45-1.13.77-1.64.32-.52.71-.97,1.16-1.35.45-.39.96-.69,1.52-.9.56-.21,1.15-.32,1.77-.32.09,0,.18,0,.27.02.1.01.18.02.24.02.09.02.16.03.23.03v4.03c-.11,0-.2-.01-.29-.03-.11,0-.22,0-.32-.02-.11-.01-.24-.02-.39-.02-.43,0-.87.06-1.32.19s-.88.33-1.29.61c-.41.28-.77.64-1.1,1.08s-.58.96-.77,1.56c-.24.84-.35,1.73-.35,2.68v6.51h-4.06v-12.25Z"/>
      <path class="cls-7" d="M90.89,19.28h-2.13v-3.26h2.22v-4.48h4v4.48h3.74v3.26h-3.74v6.64c0,.69.12,1.23.35,1.63.24.4.52.71.85.93.33.23.69.37,1.06.44s.7.1.98.1.46-.01.55-.03c.09,0,.15-.01.19-.03v3.58c-.11.02-.23.04-.35.06-.11.02-.24.03-.4.03h-.5c-.58,0-1.26-.06-2.05-.19-.78-.13-1.53-.41-2.24-.84-.71-.43-1.31-1.05-1.81-1.87-.49-.82-.74-1.91-.74-3.29v-7.16Z"/>
      <path class="cls-7" d="M109.81,13.87c-.11-.28-.23-.47-.37-.56-.14-.1-.35-.15-.63-.15h-.58v-3.58h2.68c.79,0,1.38.13,1.76.39s.69.75.95,1.48l4.38,12.76c.11.32.21.68.32,1.06.11.39.2.75.29,1.1.09.39.17.78.26,1.19h.06c.09-.41.17-.81.26-1.19.09-.34.18-.71.29-1.1.11-.39.21-.74.32-1.06l4.38-12.76c.13-.37.26-.67.4-.9.14-.24.31-.43.52-.58.2-.15.45-.25.73-.31.28-.05.62-.08,1.03-.08h2.71v3.58h-.61c-.28,0-.49.05-.63.15-.14.1-.26.29-.37.56l-6.83,18.6h-4.45l-6.87-18.6Z"/>
      <path class="cls-7" d="M130.96,24.25c0-1.27.2-2.43.61-3.48.41-1.05.98-1.96,1.71-2.72.73-.76,1.62-1.35,2.65-1.77,1.03-.42,2.16-.63,3.39-.63s2.23.2,3.13.61c.9.41,1.66.96,2.28,1.66.61.7,1.08,1.52,1.41,2.47.32.95.48,1.97.48,3.06,0,.13,0,.27-.02.44-.01.16-.03.33-.05.5-.02.19-.03.39-.03.58h-11.35c.17,1.46.73,2.56,1.66,3.3.94.74,2.03,1.11,3.27,1.11.67,0,1.27-.09,1.82-.27.55-.18,1.04-.39,1.47-.63.47-.26.91-.57,1.32-.93l1.71,2.84c-.52.47-1.11.89-1.78,1.26-.56.3-1.25.58-2.07.84-.82.26-1.74.39-2.78.39-1.36,0-2.58-.23-3.68-.69-1.1-.46-2.03-1.08-2.79-1.87-.76-.78-1.35-1.7-1.76-2.74-.41-1.04-.61-2.14-.61-3.3ZM142.4,22.12c-.04-.98-.36-1.77-.95-2.38s-1.3-.91-2.13-.91c-1.05,0-1.92.29-2.62.88-.7.59-1.16,1.39-1.4,2.41h7.09Z"/>
      <path class="cls-7" d="M150.43,13.77c0-.47-.24-.71-.71-.71h-1.29v-3.48h3.9c1.46,0,2.19.72,2.19,2.16v5.77c0,.21,0,.4-.02.56-.01.16-.02.31-.02.44-.02.15-.03.28-.03.39h.06c.19-.39.46-.78.81-1.18.34-.4.76-.75,1.24-1.05.48-.3,1.03-.55,1.63-.74.6-.19,1.26-.29,1.97-.29,1.85,0,3.27.49,4.25,1.48.99.99,1.48,2.57,1.48,4.76v6.4c0,.47.24.71.71.71h1.29v3.48h-3.9c-.75,0-1.3-.17-1.64-.52-.34-.34-.52-.9-.52-1.68v-7.54c0-1.01-.18-1.82-.53-2.43-.35-.61-1.05-.92-2.08-.92-1.1,0-2.04.32-2.82.95-.78.63-1.33,1.46-1.63,2.47-.11.32-.18.66-.21,1.02s-.05.73-.05,1.11v7.54h-4.09V13.77Z"/>
      <path class="cls-7" d="M171.31,20.22c0-.47-.24-.71-.71-.71h-1.29v-3.48h3.9c.75,0,1.3.18,1.64.53s.52.91.52,1.66v10.06c0,.47.24.71.71.71h1.29v3.48h-3.9c-.75,0-1.3-.17-1.64-.52-.34-.34-.52-.9-.52-1.68v-10.06ZM171.51,9.58h3.55v3.77h-3.55v-3.77Z"/>
      <path class="cls-7" d="M179.18,24.25c0-1.16.2-2.26.61-3.3.41-1.04,1-1.96,1.77-2.74.77-.78,1.71-1.41,2.82-1.87,1.11-.46,2.37-.69,3.79-.69.54,0,1.15.06,1.84.18.69.12,1.34.33,1.95.62.61.29,1.13.68,1.55,1.15.42.48.63,1.07.63,1.79v1.93h-3.61v-.9c0-.21-.08-.41-.23-.58-.15-.17-.35-.31-.58-.4-.24-.1-.49-.17-.76-.23s-.53-.08-.79-.08c-.71,0-1.37.13-1.96.39-.59.26-1.11.61-1.55,1.06-.44.45-.78.99-1.02,1.62-.24.63-.36,1.31-.36,2.04,0,.84.15,1.57.44,2.2s.67,1.16,1.15,1.57c.47.42,1.02.73,1.63.95.61.21,1.26.32,1.92.32s1.34-.11,1.94-.34,1.12-.48,1.55-.76c.52-.32.98-.7,1.39-1.13l1.71,2.84c-.49.56-1.09,1.05-1.77,1.48-.58.37-1.31.7-2.18,1.02-.87.31-1.86.47-2.98.47-1.35,0-2.58-.23-3.67-.68s-2.03-1.06-2.8-1.84c-.77-.77-1.37-1.68-1.79-2.72-.42-1.04-.63-2.17-.63-3.37Z"/>
      <path class="cls-7" d="M197.97,13.77c0-.47-.24-.71-.71-.71h-1.29v-3.48h3.9c1.46,0,2.19.73,2.19,2.19v16.51c0,.47.24.71.71.71h1.26v3.48h-3.87c-.77,0-1.33-.17-1.68-.52s-.52-.9-.52-1.68V13.77Z"/>
      <path class="cls-7" d="M205.8,24.25c0-1.27.2-2.43.61-3.48.41-1.05.98-1.96,1.71-2.72.73-.76,1.62-1.35,2.65-1.77,1.03-.42,2.16-.63,3.39-.63s2.23.2,3.13.61c.9.41,1.66.96,2.28,1.66.61.7,1.08,1.52,1.41,2.47.32.95.48,1.97.48,3.06,0,.13,0,.27-.02.44-.01.16-.03.33-.05.5-.02.19-.03.39-.03.58h-11.35c.17,1.46.73,2.56,1.66,3.3.94.74,2.03,1.11,3.27,1.11.67,0,1.27-.09,1.82-.27.55-.18,1.04-.39,1.47-.63.47-.26.91-.57,1.32-.93l1.71,2.84c-.52.47-1.11.89-1.78,1.26-.56.3-1.25.58-2.07.84-.82.26-1.74.39-2.78.39-1.36,0-2.58-.23-3.68-.69-1.1-.46-2.03-1.08-2.79-1.87-.76-.78-1.35-1.7-1.76-2.74-.41-1.04-.61-2.14-.61-3.3ZM217.25,22.12c-.04-.98-.36-1.77-.95-2.38s-1.3-.91-2.13-.91c-1.05,0-1.92.29-2.62.88-.7.59-1.16,1.39-1.4,2.41h7.09Z"/>
      <path class="cls-7" d="M234.43,13.16h-2.1v-3.58h9.9c1.03,0,1.98.13,2.85.39s1.62.64,2.24,1.14,1.11,1.12,1.47,1.85.53,1.57.53,2.51c0,.64-.08,1.22-.24,1.74-.16.52-.37.98-.63,1.39-.26.41-.55.76-.89,1.06-.33.3-.67.54-1.02.71v.06c.62.19,1.17.47,1.63.84.46.37.84.79,1.14,1.27s.53,1,.68,1.56c.15.56.23,1.13.23,1.71,0,1.14-.21,2.13-.63,2.97-.42.84-.99,1.53-1.72,2.08s-1.57.95-2.53,1.21-1.96.39-3.01.39h-5.71c-.75,0-1.31-.17-1.66-.52s-.53-.9-.53-1.68V13.16ZM242.26,18.93c.9,0,1.59-.28,2.06-.85.47-.57.71-1.26.71-2.08s-.24-1.49-.71-2.03c-.47-.54-1.18-.81-2.13-.81h-3.55v5.77h3.61ZM238.65,28.18c0,.47.24.71.71.71h3.29c1.03,0,1.83-.31,2.39-.93.56-.62.84-1.42.84-2.39s-.28-1.76-.84-2.37c-.56-.61-1.35-.92-2.39-.92h-4v5.9Z"/>
      <path class="cls-7" d="M252.57,24.25c0-1.25.24-2.4.71-3.47.47-1.06,1.11-1.97,1.91-2.72.8-.75,1.75-1.34,2.85-1.77,1.09-.43,2.26-.64,3.51-.64s2.42.21,3.52.64c1.1.43,2.06,1.02,2.86,1.77.8.75,1.44,1.66,1.91,2.72.47,1.06.71,2.22.71,3.47s-.24,2.43-.71,3.48c-.47,1.05-1.11,1.96-1.91,2.72-.8.76-1.76,1.35-2.86,1.77-1.11.42-2.28.63-3.52.63s-2.41-.21-3.51-.63-2.04-1.01-2.85-1.77c-.8-.76-1.44-1.67-1.91-2.72-.47-1.05-.71-2.21-.71-3.48ZM256.67,24.25c0,.77.13,1.47.39,2.1.26.62.61,1.16,1.05,1.61s.96.8,1.55,1.05c.59.25,1.22.37,1.89.37s1.3-.12,1.89-.37c.59-.25,1.12-.6,1.57-1.05s.81-.99,1.07-1.61c.26-.62.39-1.32.39-2.1s-.13-1.44-.39-2.08c-.26-.63-.61-1.18-1.07-1.63s-.98-.8-1.57-1.05c-.59-.25-1.22-.37-1.89-.37s-1.3.12-1.89.37-1.11.6-1.55,1.05-.79.99-1.05,1.63c-.26.63-.39,1.33-.39,2.08Z"/>
      <path class="cls-7" d="M272.66,24.25c0-1.25.24-2.4.71-3.47.47-1.06,1.11-1.97,1.91-2.72.8-.75,1.75-1.34,2.85-1.77,1.09-.43,2.26-.64,3.51-.64s2.42.21,3.52.64c1.1.43,2.06,1.02,2.86,1.77.8.75,1.44,1.66,1.91,2.72.47,1.06.71,2.22.71,3.47s-.24,2.43-.71,3.48c-.47,1.05-1.11,1.96-1.91,2.72-.8.76-1.76,1.35-2.86,1.77-1.11.42-2.28.63-3.52.63s-2.41-.21-3.51-.63-2.04-1.01-2.85-1.77c-.8-.76-1.44-1.67-1.91-2.72-.47-1.05-.71-2.21-.71-3.48ZM276.75,24.25c0,.77.13,1.47.39,2.1.26.62.61,1.16,1.05,1.61s.96.8,1.55,1.05c.59.25,1.22.37,1.89.37s1.3-.12,1.89-.37c.59-.25,1.12-.6,1.57-1.05s.81-.99,1.07-1.61c.26-.62.39-1.32.39-2.1s-.13-1.44-.39-2.08c-.26-.63-.61-1.18-1.07-1.63s-.98-.8-1.57-1.05c-.59-.25-1.22-.37-1.89-.37s-1.3.12-1.89.37-1.11.6-1.55,1.05-.79.99-1.05,1.63c-.26.63-.39,1.33-.39,2.08Z"/>
      <path class="cls-7" d="M294.25,13.77c0-.47-.24-.71-.71-.71h-1.29v-3.48h3.9c.75,0,1.31.12,1.66.37.35.25.53.75.53,1.5v10.35h1.22c.26,0,.54-.04.84-.11.3-.07.54-.24.71-.5l3.35-5.16h4.54l-4.16,6.17c-.32.47-.61.81-.87,1.03-.13.11-.25.19-.35.26v.06c.11.06.23.15.35.26.11.11.23.24.37.4.14.16.28.37.43.63l1.87,3.54c.13.24.29.4.48.48.19.09.48.13.87.13h1.1v3.48h-3.03c-.69,0-1.21-.09-1.56-.26-.36-.17-.69-.56-1.02-1.16l-2.74-5.16c-.17-.3-.4-.48-.69-.53-.29-.05-.56-.08-.82-.08h-.9v7.19h-4.09V13.77Z"/>
      <path class="cls-7" d="M312.33,20.22c0-.47-.24-.71-.71-.71h-1.29v-3.48h3.9c.75,0,1.3.18,1.64.53.34.35.52.91.52,1.66v10.06c0,.47.24.71.71.71h1.29v3.48h-3.9c-.75,0-1.3-.17-1.64-.52s-.52-.9-.52-1.68v-10.06ZM312.53,9.58h3.55v3.77h-3.55v-3.77Z"/>
      <path class="cls-7" d="M321.84,20.22c0-.47-.24-.71-.71-.71h-1.29v-3.48h3.77c.73,0,1.27.16,1.63.48s.53.77.53,1.35v.48c0,.11,0,.2-.02.27-.01.08-.02.15-.02.21-.02.09-.03.16-.03.23h.06c.17-.34.42-.71.74-1.11.32-.4.72-.77,1.19-1.11.47-.34,1.03-.63,1.66-.85s1.37-.34,2.21-.34c1.83,0,3.24.49,4.24,1.48,1,.99,1.5,2.57,1.5,4.76v6.4c0,.47.24.71.71.71h1.29v3.48h-3.9c-.77,0-1.33-.17-1.68-.52-.34-.34-.52-.9-.52-1.68v-7.54c0-1.01-.17-1.82-.52-2.43s-1.03-.92-2.06-.92c-1.1,0-2.03.31-2.8.93-.77.62-1.31,1.43-1.61,2.42-.22.65-.32,1.38-.32,2.19v7.54h-4.06v-12.25Z"/>
      <path class="cls-7" d="M340.93,23.83c0-1.12.16-2.18.47-3.18.31-1,.77-1.87,1.39-2.61s1.38-1.33,2.29-1.76c.91-.43,1.96-.64,3.14-.64.97,0,1.77.12,2.4.35.63.24,1.16.51,1.56.81.45.34.82.73,1.1,1.16h.06v-.42c0-.37.14-.71.42-1.03s.74-.48,1.39-.48h3.8v3.48h-1.26c-.47,0-.71.21-.71.64v11.31c0,1.42-.25,2.62-.76,3.59-.5.98-1.17,1.78-1.98,2.4-.82.62-1.74,1.07-2.77,1.35s-2.08.42-3.16.42-2.06-.13-3.09-.39c-1.03-.26-1.95-.61-2.74-1.04l1.26-3.24c.39.21.83.4,1.32.55.41.15.89.28,1.45.39.56.11,1.15.16,1.77.16s1.21-.07,1.77-.21,1.05-.37,1.48-.69c.43-.32.77-.73,1.02-1.24.25-.5.37-1.13.37-1.88v-1.35c0-.09.01-.18.03-.29h-.06c-.49.69-1.11,1.23-1.84,1.59-.73.37-1.64.55-2.74.55-1.18,0-2.23-.22-3.14-.66-.91-.44-1.69-1.04-2.32-1.81s-1.11-1.64-1.43-2.64c-.32-1-.48-2.07-.48-3.21ZM349.18,28.66c.49,0,.97-.08,1.43-.24s.87-.42,1.22-.79c.35-.36.64-.86.85-1.48.21-.62.32-1.39.32-2.31s-.11-1.69-.32-2.3-.51-1.1-.89-1.46-.81-.62-1.3-.75c-.5-.14-1.02-.21-1.58-.21-1.25,0-2.2.41-2.85,1.24-.66.82-.98,1.93-.98,3.32s.35,2.62,1.05,3.57,1.71,1.41,3.05,1.41Z"/>
      <path class="cls-7" d="M371.58,26.34c.47.52,1,.97,1.58,1.35.49.34,1.07.66,1.74.93.67.28,1.41.42,2.22.42.43,0,.84-.06,1.24-.18.4-.12.75-.29,1.05-.52.3-.23.54-.5.72-.84s.27-.73.27-1.18c0-.64-.26-1.19-.79-1.64s-1.19-.88-2-1.27c-.81-.4-1.67-.81-2.59-1.23-.92-.42-1.79-.91-2.59-1.48-.81-.57-1.47-1.26-2-2.08-.53-.82-.79-1.82-.79-3,0-.92.19-1.78.58-2.56.39-.78.92-1.47,1.6-2.05.68-.58,1.48-1.03,2.42-1.35s1.95-.48,3.05-.48c.67,0,1.4.08,2.19.24.79.16,1.53.42,2.21.79.68.37,1.25.83,1.71,1.4.46.57.69,1.26.69,2.08v2.13h-3.8v-1.03c0-.26-.09-.5-.26-.73s-.4-.41-.7-.56c-.29-.15-.62-.27-.97-.35-.36-.09-.73-.13-1.12-.13-.97,0-1.78.23-2.41.68-.64.45-.96,1.04-.96,1.77,0,.64.26,1.18.79,1.61.53.43,1.2.83,2,1.21.81.38,1.68.76,2.6,1.14s1.79.87,2.6,1.43c.81.57,1.48,1.27,2,2.11.53.84.79,1.88.79,3.13,0,.9-.17,1.76-.52,2.58-.34.82-.84,1.53-1.48,2.14-.64.61-1.44,1.1-2.38,1.47-.95.37-2.02.55-3.22.55-1.29,0-2.42-.18-3.38-.55-.97-.37-1.78-.77-2.45-1.23-.77-.52-1.45-1.11-2.03-1.77l2.39-2.97Z"/>
      <path class="cls-7" d="M388.15,35.21c.21.15.46.28.74.39.28.11.59.16.93.16.56,0,1.07-.17,1.55-.52s.86-.87,1.16-1.58l.55-1.25-5.48-12.32c-.11-.24-.22-.39-.34-.47s-.3-.11-.53-.11h-.48v-3.48h2.71c.58,0,1.03.12,1.35.35.32.24.59.63.81,1.19l3.22,8.22c.17.45.31.92.42,1.42.06.26.12.52.16.77h.06c.04-.26.1-.52.16-.77.04-.24.1-.48.16-.73.06-.25.14-.48.23-.69l2.8-8.22c.19-.56.47-.96.82-1.19.35-.24.81-.35,1.37-.35h2.77v3.48h-.48c-.24,0-.42.04-.56.11-.14.08-.26.23-.37.47l-5.9,14.86c-.58,1.48-1.41,2.57-2.48,3.26-1.08.69-2.22,1.03-3.45,1.03-.64,0-1.22-.09-1.74-.26-.52-.17-.96-.37-1.32-.59-.41-.24-.77-.52-1.1-.85l1.58-2.92c.21.21.44.41.68.58Z"/>
      <path class="cls-7" d="M406.43,27.24c.41.45.87.86,1.39,1.23.43.3.95.58,1.55.82.6.25,1.26.37,1.97.37.62,0,1.15-.13,1.58-.39.43-.26.64-.67.64-1.22,0-.39-.21-.72-.64-1-.43-.28-.97-.55-1.61-.82-.64-.27-1.34-.55-2.08-.85s-1.43-.67-2.08-1.11c-.64-.44-1.18-.97-1.61-1.58-.43-.61-.64-1.36-.64-2.24,0-.82.17-1.53.52-2.13.34-.6.81-1.1,1.39-1.5.58-.4,1.26-.69,2.03-.89s1.59-.29,2.45-.29c.56,0,1.17.05,1.84.16s1.29.29,1.87.55c.58.26,1.07.61,1.47,1.06.4.45.6,1,.6,1.67v1.71h-3.61v-.81c0-.39-.23-.68-.69-.87-.46-.19-.91-.29-1.36-.29-.73,0-1.31.12-1.76.37-.45.25-.67.62-.67,1.11,0,.43.21.79.64,1.08.43.29.96.56,1.61.8.64.25,1.34.51,2.1.79.76.28,1.46.63,2.1,1.04s1.18.93,1.61,1.54c.43.61.64,1.37.64,2.27,0,.77-.16,1.47-.48,2.09s-.77,1.15-1.34,1.58c-.57.43-1.24.76-2,1-.76.24-1.6.35-2.5.35-1.14,0-2.14-.15-3-.45s-1.57-.63-2.13-1c-.69-.43-1.26-.92-1.71-1.48l1.93-2.68Z"/>
      <path class="cls-7" d="M421.51,19.28h-2.13v-3.26h2.22v-4.48h4v4.48h3.74v3.26h-3.74v6.64c0,.69.12,1.23.35,1.63.24.4.52.71.85.93s.69.37,1.06.44c.38.06.7.1.98.1s.46-.01.55-.03c.08,0,.15-.01.19-.03v3.58c-.11.02-.23.04-.35.06-.11.02-.24.03-.4.03h-.5c-.58,0-1.26-.06-2.05-.19s-1.53-.41-2.24-.84-1.31-1.05-1.8-1.87c-.5-.82-.74-1.91-.74-3.29v-7.16Z"/>
      <path class="cls-7" d="M431.73,24.25c0-1.27.21-2.43.61-3.48.41-1.05.98-1.96,1.71-2.72.73-.76,1.62-1.35,2.65-1.77,1.03-.42,2.16-.63,3.39-.63s2.23.2,3.13.61c.91.41,1.66.96,2.28,1.66.61.7,1.08,1.52,1.41,2.47.32.95.48,1.97.48,3.06,0,.13,0,.27-.02.44-.01.16-.03.33-.05.5-.02.19-.03.39-.03.58h-11.35c.17,1.46.73,2.56,1.66,3.3s2.03,1.11,3.27,1.11c.67,0,1.27-.09,1.82-.27.55-.18,1.04-.39,1.47-.63.47-.26.91-.57,1.32-.93l1.71,2.84c-.52.47-1.11.89-1.78,1.26-.56.3-1.25.58-2.07.84-.82.26-1.74.39-2.78.39-1.36,0-2.58-.23-3.68-.69-1.1-.46-2.03-1.08-2.79-1.87-.76-.78-1.35-1.7-1.76-2.74-.41-1.04-.61-2.14-.61-3.3ZM443.17,22.12c-.04-.98-.36-1.77-.95-2.38s-1.3-.91-2.13-.91c-1.05,0-1.92.29-2.62.88-.69.59-1.16,1.39-1.4,2.41h7.09Z"/>
      <path class="cls-7" d="M451.33,20.22c0-.47-.24-.71-.71-.71h-1.29v-3.48h3.77c.73,0,1.27.16,1.63.48s.53.77.53,1.35v.48c0,.11,0,.2-.02.27-.01.08-.02.15-.02.21v.23h.06c.19-.41.46-.82.79-1.23.33-.41.73-.77,1.19-1.1.46-.32.97-.58,1.53-.79.56-.2,1.16-.31,1.81-.31,2.49,0,4.09,1.13,4.8,3.38h.06c.21-.45.5-.88.87-1.29s.79-.77,1.27-1.08c.48-.31,1.02-.56,1.61-.74.59-.18,1.21-.27,1.85-.27,1.72,0,3.05.5,3.98,1.5.93,1,1.4,2.58,1.4,4.74v6.4c0,.47.24.71.71.71h1.26v3.48h-3.87c-.77,0-1.33-.17-1.68-.52s-.52-.9-.52-1.68v-7.61c0-.47-.03-.91-.08-1.31-.05-.4-.16-.74-.32-1.03s-.39-.52-.69-.69c-.3-.17-.69-.26-1.16-.26-1.03,0-1.89.37-2.56,1.11-.68.74-1.13,1.63-1.37,2.66-.11.32-.18.66-.21,1-.03.34-.05.71-.05,1.1v7.22h-4.09v-9.8c0-.45-.02-.88-.06-1.27-.04-.4-.14-.75-.31-1.05-.16-.3-.39-.54-.68-.71-.29-.17-.68-.26-1.18-.26-1.03,0-1.89.37-2.56,1.11-.68.74-1.14,1.64-1.4,2.69-.17.69-.26,1.38-.26,2.06v7.22h-4.06v-12.25Z"/>
    </g>
  </g>
</svg>