<?xml version="1.0" encoding="UTF-8"?>
<svg id="Layer_1" data-name="Layer 1" xmlns="http://www.w3.org/2000/svg" viewBox="0 0 883 369.39">
  <defs>
    <style>
      .cls-1 {
        fill: #046eb6;
      }

      .cls-2 {
        fill: #90c642;
      }

      .cls-3 {
        fill: #90c541;
      }

      .cls-4 {
        fill: #8fc843;
      }

      .cls-5 {
        fill: #1289d7;
      }

      .cls-6 {
        fill: #0879c0;
      }

      .cls-7 {
        fill: #fff;
      }

      .cls-8 {
        fill: #8ca9d7;
      }

      .cls-9 {
        fill: #0679c0;
      }

      .cls-10 {
        fill: #8ca8d5;
      }

      .cls-11 {
        fill: #91c545;
      }

      .cls-12 {
        fill: #0078c1;
      }

      .cls-13 {
        fill: #0579c0;
      }

      .cls-14 {
        fill: #0779c3;
      }

      .cls-15 {
        fill: #8eacdd;
      }

      .cls-16 {
        fill: #92d037;
      }
    </style>
  </defs>
  <g>
    <path class="cls-3" d="M484.47,1.58c8.56-1.39,17.33-2.04,25.98-1.22,6.49.68,13.15,2.18,18.61,5.91,3.7,2.52,6.56,6.22,7.81,10.53,1.8,5.91,1.05,12.26-.48,18.14-1.05,3.84-2.45,7.57-3.94,11.24-.14-.51.07-.98.2-1.49,1.83-6.42,1.8-13.45-.51-19.77-1.87-5.16-5.5-9.61-9.92-12.84-5.71-4.18-12.53-6.59-19.4-8.09-6.18-1.29-12.47-2.07-18.78-2.18.1-.03.31-.17.41-.24h0Z"/>
    <path class="cls-2" d="M456.75,7.8c8.26-1.25,16.64-1.9,25-1.73,7.54.14,15.12.95,22.35,3.09,5.26,1.56,10.36,3.91,14.54,7.51,4.01,3.39,6.93,8.05,8.19,13.15,1.77,6.86.98,14.1-.72,20.86-1.25,4.96-3.09,9.72-5.06,14.4l-.34.38c.72-5.74-.17-11.62-1.8-17.15-2.11-6.96-5.91-13.35-10.94-18.58-8.43-8.83-19.71-14.33-31.29-17.74-6.42-1.87-13.01-3.12-19.64-4.01l-.31-.17h0Z"/>
    <path class="cls-12" d="M403.11,9.87c8.8,8.32,17.46,16.81,26.19,25.21,4.42,4.28,8.9,8.53,13.28,12.84l-.07.17c-3.29,1.9-6.59,3.84-9.89,5.74,4.72,4.72,9.37,9.51,14.07,14.27,3.02-1.97,6.08-3.87,9.1-5.81.34-.17.65-.51,1.05-.51,12.94,12.43,25.88,24.87,38.83,37.33l-.03.24c-9.34,8.93-21.1,15.18-33.56,18.51-16.1,4.28-33.49,3.94-49.32-1.36-12.06-4.04-23.27-11.04-31.42-20.93-4.39-5.26-7.81-11.35-9.96-17.87-2.48-7.54-3.16-15.63-1.94-23.48,1.73-11.41,7.4-22.01,15.29-30.37,5.33-5.64,11.58-10.36,18.38-14h0Z"/>
    <path class="cls-4" d="M416.76,18.33c13.96-5.98,29.55-7.88,44.64-6.01,12.8,1.63,25.38,6.22,35.73,14,5.54,4.18,10.36,9.34,13.83,15.39,3.39,5.98,5.43,12.8,5.43,19.71.1,6.69-1.66,13.35-4.82,19.23-3.16,5.91-7.64,11.11-12.8,15.35-.34.2-.58.65-.98.68-12.37-11.96-24.76-23.91-37.16-35.87-.27-.34-.72-.58-.85-1.02,2.18-1.39,4.39-2.72,6.52-4.18-1.66-1.87-3.67-3.46-5.43-5.23-2.89-2.62-5.6-5.47-8.63-7.92-2.21,1.25-4.42,2.52-6.59,3.84-8.49-8.05-16.85-16.24-25.31-24.35-1.15-1.22-2.48-2.31-3.57-3.6h0Z"/>
    <path class="cls-6" d="M440.1,57.19c3.77-2.38,7.64-4.59,11.48-6.86l.27.07c2.35,2.18,4.65,4.42,6.99,6.59-2.04,1.53-4.35,2.75-6.46,4.15-1.73,1.02-3.36,2.18-5.16,3.12-2.41-2.31-4.76-4.69-7.13-7.06h0Z"/>
    <path class="cls-5" d="M378.82,95.75c.61.41.88,1.12,1.39,1.63,4.11,5.43,9.31,9.99,14.91,13.76-.24.2-.68.31-.78.65.14.34.38.65.34,1.02-6.29-4.62-11.65-10.46-15.87-17.05h0Z"/>
    <path class="cls-14" d="M479.17,115.15c5.88-3.09,11.45-6.76,16.34-11.24-.14,2.79-.31,5.57-.55,8.36-10.56,8.56-23.61,13.73-36.99,15.73-21.94,3.22-45.38-1.77-63.25-15.15h0c0-.38-.2-.68-.34-1.02.1-.34.55-.44.78-.65,12.8,8.49,28.19,12.7,43.48,12.91,7.68,0,15.39-.61,22.83-2.48,6.08-1.63,12.1-3.57,17.7-6.46h0Z"/>
    <path class="cls-15" d="M577.31,136.21c1.12-.55,2.92-.14,3.19,1.29-.2,2-3.63,2.11-4.11.2-.2-.65.34-1.25.92-1.49Z"/>
    <path class="cls-8" d="M562.97,141.2c2.62-1.36,5.6-1.53,8.49-1.7,2.28,0,4.55-.14,6.79.1,3.06-.24,6.12-.17,9.17.03,2.35.24,4.82.51,6.86,1.87,1.29.85,1.83,2.65,1.15,4.04-1.15,2.72-3.46,4.72-5.78,6.46-.17.03-.48.14-.65.17,1.32-2.24,3.36-4.39,3.36-7.17-.07-2.11-1.97-3.53-3.84-4.11-.14.48.65.44.85.75,1.09.92,1.36,2.52.85,3.8-1.02,2.69-3.22,4.72-5.4,6.52-.24.17-.48.2-.72.03,1.29-2.04,2.55-4.52,1.87-6.99-.75-2.48-3.22-3.87-5.54-4.62-.58-.1-1.12-.58-1.7-.31,1.94,3.8,1.56,8.43-.27,12.2-.1-.07-.34-.24-.44-.31-1.77-3.7-2.07-8.22-.07-11.89l-.38-.14c-2.55.72-5.37,1.8-6.62,4.32-1.02,2-.27,4.35.72,6.22.27.58.82,1.09.75,1.77-.82-.31-1.36-1.02-2-1.53-1.77-1.7-3.67-3.6-4.18-6.12-.34-1.59.72-3.02,2.11-3.67-1.56.2-3.02,1.29-3.7,2.72-.82,1.9.14,3.94,1.12,5.6.55,1.05,1.49,1.87,1.94,2.95-.88-.14-1.46-.88-2.14-1.39-1.8-1.66-3.77-3.39-4.45-5.84-.41-1.53.48-3.12,1.83-3.77h0Z"/>
    <g>
      <path class="cls-13" d="M353.24,149.83c3.94-.61,7.88-1.15,11.82-1.7l.2.07c-.17,2.55-.55,5.06-1.19,7.51-2.14,8.12-4.32,16.24-6.42,24.35-.75,3.53-1.87,7.13-1.25,10.8-3.33-.07-6.76.1-10.06-.1-.14-.55-.2-1.09-.27-1.63-.1,0-.27.03-.38.07-2.14,1.94-5.16,2.45-7.95,2.41-2.75-.07-5.71-.88-7.54-3.09-1.97-2.35-2.24-5.6-2.07-8.56.44-5.91,2.82-11.89,7.44-15.76,3.19-2.72,7.47-3.94,11.65-3.91,1.42-.03,2.75.51,4.04.95.85-3.77,1.9-7.51,1.97-11.41h0ZM343.63,169.56c-2.41,3.02-3.12,6.99-3.6,10.73-.17,1.22-.07,2.95,1.22,3.53,1.94.61,4.39-.78,4.62-2.85.95-3.98,2-7.92,2.85-11.89-1.25-1.73-3.94-1.02-5.09.48h0Z"/>
      <path class="cls-13" d="M425.53,150.27c3.98-.61,7.98-1.19,11.99-1.73-.24,4.72-1.56,9.27-2.69,13.83,3.33-2.04,7.44-2.35,11.24-1.87,1.87.27,3.91.98,4.86,2.72,1.05,1.9.68,4.18.24,6.22-1.7,7.13-3.39,14.27-5.13,21.37-3.8.2-7.71.03-11.55.07,1.63-6.83,3.36-13.62,4.96-20.41.14-.68.41-1.73-.48-2.07-2.07-.65-4.21.41-5.88,1.63-1.77,6.89-3.33,13.86-5.09,20.79-3.77.2-7.68.03-11.48.07,2.52-10.7,5.16-21.33,7.71-32.03.65-2.82,1.29-5.67,1.29-8.56h0Z"/>
    </g>
    <path class="cls-10" d="M568.14,152.92c6.86-.07,13.73-.14,20.55.03.34,1.05.34,2.41,0,3.46-.51.2-1.09.14-1.59.17-6.01,0-12.03.03-18,0-.48-.03-1.29-.03-1.19-.72.07-.98-.31-2.11.24-2.95h0Z"/>
    <g>
      <path class="cls-9" d="M376.82,162.36c4.62-2.35,10.13-2.69,15.15-1.56,2.18.55,4.42,1.53,5.81,3.36,1.87,2.52,1.94,6.22.27,8.83-1.56,2.58-4.28,4.15-7.06,5.09-4.08,1.32-8.46,1.49-12.74,1.09-.24,1.56-.48,3.7,1.09,4.69,2.45,1.12,5.26.58,7.75-.07,1.87-.44,3.53-1.46,5.3-2.11.72,2.04,1.42,4.08,2.18,6.12l-.14.24c-5.37,2.48-11.35,4.21-17.29,3.39-3.46-.34-7.3-1.49-9.17-4.65-1.87-3.29-1.63-7.3-.98-10.87,1.05-5.71,4.65-10.94,9.85-13.55h0ZM381.3,169.49c-.51.88-1.09,1.87-1.05,2.92,2.21.48,4.72.27,6.56-1.12,1.12-.82,1.42-2.72.14-3.5-1.9-1.12-4.55-.17-5.64,1.7Z"/>
      <path class="cls-9" d="M463.48,165.04c4.04-3.77,9.82-5.23,15.25-4.79,2.92.17,5.95.78,8.32,2.58,2.62,2,3.39,5.88,2.14,8.86-.98,2.48-3.09,4.32-5.47,5.43-4.62,2.24-9.96,2.45-14.98,2.04-.2,1.73-.38,4.32,1.73,4.96,3.87.95,7.95-.31,11.38-2.07.34-.1.72-.55,1.09-.34.68,2.07,1.46,4.11,2.14,6.15-5.4,2.69-11.55,4.35-17.63,3.5-2.69-.31-5.47-1.02-7.54-2.85-1.66-1.49-2.55-3.67-2.79-5.84-.65-6.42,1.49-13.25,6.36-17.63h0ZM473.26,168c-1.46.92-2.14,2.62-2.58,4.21,2.07.78,4.69.41,6.56-.85,1.25-.78,1.56-2.92.14-3.7-1.29-.61-2.89-.38-4.11.34h0Z"/>
      <path class="cls-9" d="M538.41,165.25c2.85-3.12,7.17-4.45,11.28-4.82,5.3-.51,10.73.44,15.59,2.62-1.63,2.14-3.39,4.21-5.09,6.32-2.41-1.19-5.06-1.94-7.75-2.07-1.29,0-3.02.34-3.46,1.77-.34.88.55,1.63,1.29,1.87,3.19,1.22,6.83,1.15,9.72,3.12,2.11,1.36,2.82,4.15,2.45,6.52-.51,2.85-2.41,5.3-4.69,7.06-4.01,3.02-9.2,4.08-14.13,3.94-4.59-.24-9.2-1.46-13.21-3.74,1.46-1.94,2.99-3.8,4.49-5.71.31-.27.44-.85.92-.85,3.09,1.77,6.62,2.92,10.19,2.95,1.36,0,2.99-.34,3.84-1.49.61-.88.2-2.14-.78-2.52-2.79-1.12-5.84-1.15-8.63-2.21-1.9-.75-3.6-2.21-4.15-4.21-.95-2.95.03-6.32,2.14-8.56h0Z"/>
      <path class="cls-9" d="M499.62,161.75c3.94-.48,7.92-.95,11.86-1.32-1.63,6.73-3.29,13.45-4.89,20.21-.27.92-.44,2.28.65,2.72,2.65.72,5.71-1.36,6.08-4.08,1.42-5.84,2.85-11.69,4.28-17.53,3.94-.44,7.88-.92,11.82-1.32-1.25,5.4-2.62,10.77-3.91,16.14-.61,2.58-1.36,5.16-1.46,7.81-.03,1.49.27,2.99.58,4.49-3.19.98-6.39,2-9.58,2.99-.41.07-.82.38-1.25.27-.44-1.15-.75-2.35-.98-3.57-3.87,2.69-8.86,3.63-13.45,2.72-1.87-.41-3.84-1.36-4.59-3.26-.78-2.18-.24-4.52.17-6.73,1.53-6.52,3.19-13.01,4.69-19.54h0Z"/>
    </g>
    <path class="cls-11" d="M416.94,220.08c13.08-5.19,26.97-8.43,41.04-9.34,6.96-.38,14-.31,20.89.75-.27.38-.58.75-.88,1.12-18.61-1.56-37.3,2.21-54.65,8.76-6.76,2.55-13.25,5.78-19.47,9.41-5.64,3.36-10.9,7.34-15.73,11.79-.92.78-1.66,1.87-2.69,2.48-.1-1.77-.75-3.5-.82-5.26,9.31-8.66,20.58-14.95,32.3-19.71h0Z"/>
    <path class="cls-16" d="M478.9,211.48c6.73.98,13.38,2.75,19.4,5.95l.03.24c-6.39-2.95-13.35-4.42-20.34-5.06.34-.38.61-.75.92-1.12Z"/>
  </g>
  <g>
    <rect class="cls-1" y="290.9" width="883" height="78.49"/>
    <path class="cls-7" d="M21.71,338.62c.85.94,1.81,1.76,2.86,2.45.89.62,1.94,1.2,3.15,1.68,1.21.51,2.55.76,4.02.76.78,0,1.52-.11,2.25-.33s1.36-.53,1.9-.94.98-.91,1.32-1.52c.33-.6.49-1.32.49-2.14,0-1.16-.47-2.16-1.43-2.97-.96-.82-2.16-1.59-3.62-2.3-1.47-.72-3.03-1.47-4.71-2.23s-3.24-1.65-4.69-2.68c-1.47-1.03-2.66-2.28-3.62-3.77s-1.43-3.3-1.43-5.44c0-1.67.34-3.23,1.05-4.64s1.67-2.66,2.9-3.71,2.68-1.87,4.38-2.45c1.68-.58,3.53-.87,5.53-.87,1.21,0,2.54.14,3.97.43s2.77.76,4,1.43c1.23.67,2.26,1.5,3.1,2.54s1.25,2.28,1.25,3.77v3.86h-6.88v-1.87c0-.47-.16-.91-.47-1.32s-.74-.74-1.27-1.01c-.53-.27-1.12-.49-1.76-.63-.65-.16-1.32-.24-2.03-.24-1.76,0-3.23.42-4.37,1.23-1.16.82-1.74,1.88-1.74,3.21,0,1.16.47,2.14,1.43,2.92s2.17,1.5,3.62,2.19c1.47.69,3.04,1.38,4.71,2.07s3.24,1.58,4.71,2.59c1.47,1.03,2.68,2.3,3.62,3.82.96,1.52,1.43,3.41,1.43,5.67,0,1.63-.31,3.19-.94,4.67-.62,1.49-1.52,2.77-2.68,3.88-1.16,1.11-2.61,1.99-4.33,2.66-1.72.67-3.66,1-5.83,1-2.34,0-4.38-.33-6.12-1-1.76-.67-3.23-1.4-4.44-2.23-1.4-.94-2.63-2.01-3.68-3.21l4.33-5.38.02.04Z"/>
    <path class="cls-7" d="M52.72,327.53c0-.85-.43-1.29-1.29-1.29h-2.34v-6.31h6.83c1.32,0,2.3.29,2.95.87s.96,1.4.96,2.45v.87c0,.2,0,.36-.04.49-.02.14-.04.27-.04.38v.42h.11c.34-.74.83-1.49,1.43-2.23s1.32-1.4,2.16-1.99c.83-.58,1.76-1.05,2.77-1.43,1.01-.36,2.1-.56,3.28-.56,4.51,0,7.41,2.05,8.7,6.12h.11c.38-.82.91-1.59,1.58-2.34.65-.74,1.43-1.4,2.3-1.96s1.85-1.01,2.92-1.34,2.19-.49,3.35-.49c3.12,0,5.53.91,7.21,2.72s2.54,4.67,2.54,8.59v11.6c0,.85.43,1.29,1.29,1.29h2.28v6.31h-7.01c-1.4,0-2.41-.31-3.04-.94-.62-.62-.94-1.63-.94-3.04v-13.79c0-.85-.05-1.65-.14-2.37-.09-.72-.29-1.34-.58-1.87s-.71-.94-1.25-1.25-1.25-.47-2.1-.47c-1.87,0-3.42.67-4.64,2.01-1.23,1.34-2.05,2.95-2.48,4.82-.2.58-.33,1.2-.38,1.81s-.09,1.29-.09,1.99v13.08h-7.41v-17.76c0-.82-.04-1.59-.11-2.3-.07-.72-.27-1.36-.56-1.9s-.71-.98-1.23-1.29c-.53-.31-1.23-.47-2.14-.47-1.87,0-3.42.67-4.64,2.01-1.23,1.34-2.07,2.97-2.54,4.87-.31,1.25-.47,2.5-.47,3.73v13.08h-7.36v-22.19l.05.07Z"/>
    <path class="cls-7" d="M104.87,341.14c0-1.56.33-2.9.96-4,.63-1.11,1.49-2.03,2.54-2.77s2.23-1.34,3.53-1.78c1.3-.45,2.61-.8,3.91-1.01,1.3-.24,2.55-.38,3.73-.43,1.2-.05,2.19-.09,3.01-.09h.94v-.24c0-2.12-.43-3.62-1.32-4.48-.87-.87-2.26-1.3-4.17-1.3-.34,0-.74.04-1.2.09-.45.05-.87.16-1.29.29s-.76.34-1.05.62-.43.6-.43,1v1.58h-6.88v-3.15c0-1.41.43-2.52,1.29-3.33.85-.82,1.87-1.43,3.04-1.87s2.37-.71,3.61-.83c1.23-.11,2.23-.18,3.01-.18,2.5,0,4.57.31,6.21.91,1.65.6,2.95,1.43,3.95,2.5s1.7,2.32,2.1,3.75c.42,1.43.62,2.99.62,4.66v11.07c0,.85.42,1.29,1.27,1.29h2.3v6.31h-6.65c-1.36,0-2.34-.33-2.92-.96s-.87-1.41-.87-2.3v-.94c0-.16.02-.27.05-.34h-.11c-.51,1.01-1.18,1.88-1.99,2.63-.71.67-1.63,1.27-2.77,1.81s-2.55.82-4.24.82c-1.32,0-2.59-.2-3.82-.62s-2.3-1-3.24-1.78-1.68-1.76-2.25-2.92c-.56-1.18-.85-2.5-.85-3.97h-.02ZM112.3,340.8c0,1.01.38,1.9,1.12,2.68s1.88,1.18,3.41,1.18c.98,0,1.88-.24,2.74-.71.83-.47,1.56-1.09,2.17-1.85.6-.76,1.07-1.61,1.41-2.54.33-.94.51-1.85.51-2.74v-.71h-1.29c-.98,0-2.05.05-3.21.14s-2.25.31-3.26.63-1.87.8-2.55,1.4-1.03,1.43-1.03,2.48l-.02.02Z"/>
    <path class="cls-7" d="M140.49,327.53c0-.85-.43-1.29-1.29-1.29h-2.34v-6.31h6.78c2.65,0,3.97,1.21,3.97,3.62v1.76c0,.31,0,.56-.04.76-.02.2-.04.38-.04.58-.04.2-.05.36-.05.53h.11c.34-1.05.82-2.05,1.4-2.97.58-.94,1.29-1.76,2.1-2.45.82-.71,1.74-1.25,2.75-1.63,1.01-.38,2.08-.58,3.21-.58.16,0,.33,0,.49.04.18.02.33.04.43.04.16.04.29.05.42.05v7.3c-.2,0-.36-.02-.53-.05-.2,0-.4,0-.58-.04-.2-.02-.43-.04-.71-.04-.78,0-1.58.11-2.39.34s-1.59.6-2.34,1.11-1.4,1.16-1.99,1.96-1.05,1.74-1.4,2.83c-.43,1.52-.63,3.13-.63,4.86v11.79h-7.36v-22.19l.02-.02Z"/>
    <path class="cls-7" d="M164.67,325.83h-3.86v-5.91h4.02v-8.12h7.25v8.12h6.78v5.91h-6.78v12.03c0,1.25.22,2.23.63,2.95.43.72.94,1.29,1.54,1.68.6.42,1.25.67,1.92.8s1.27.18,1.78.18.83-.02,1-.05c.16,0,.27-.02.34-.05v6.49c-.2.04-.42.07-.63.11-.2.04-.43.05-.72.05h-.91c-1.05,0-2.28-.11-3.71-.34-1.41-.24-2.77-.74-4.06-1.52s-2.37-1.9-3.28-3.39c-.89-1.49-1.34-3.46-1.34-5.96v-12.97h.04Z"/>
    <path class="cls-7" d="M198.95,316.03c-.2-.51-.42-.85-.67-1.01-.25-.18-.63-.27-1.14-.27h-1.05v-6.49h4.86c1.43,0,2.5.24,3.19.71s1.25,1.36,1.72,2.68l7.94,23.12c.2.58.38,1.23.58,1.92.2.71.36,1.36.53,1.99.16.71.31,1.41.47,2.16h.11c.16-.74.31-1.47.47-2.16.16-.62.33-1.29.53-1.99.2-.71.38-1.34.58-1.92l7.94-23.12c.24-.67.47-1.21.72-1.63.25-.43.56-.78.94-1.05.36-.27.82-.45,1.32-.56.51-.09,1.12-.14,1.87-.14h4.91v6.49h-1.11c-.51,0-.89.09-1.14.27-.25.18-.47.53-.67,1.01l-12.37,33.7h-8.06l-12.45-33.7h0Z"/>
    <path class="cls-7" d="M237.27,334.83c0-2.3.36-4.4,1.11-6.31s1.78-3.55,3.1-4.93c1.32-1.38,2.94-2.45,4.8-3.21s3.91-1.14,6.14-1.14,4.04.36,5.67,1.11c1.63.74,3.01,1.74,4.13,3.01,1.11,1.27,1.96,2.75,2.55,4.48.58,1.72.87,3.57.87,5.54,0,.24,0,.49-.04.8-.02.29-.05.6-.09.91-.04.34-.05.71-.05,1.05h-20.56c.31,2.65,1.32,4.64,3.01,5.98,1.7,1.34,3.68,2.01,5.92,2.01,1.21,0,2.3-.16,3.3-.49s1.88-.71,2.66-1.14c.85-.47,1.65-1.03,2.39-1.68l3.1,5.15c-.94.85-2.01,1.61-3.23,2.28-1.01.54-2.26,1.05-3.75,1.52s-3.15.71-5.04.71c-2.46,0-4.67-.42-6.67-1.25-1.99-.83-3.68-1.96-5.05-3.39-1.38-1.41-2.45-3.08-3.19-4.96-.74-1.88-1.11-3.88-1.11-5.98l.02-.05ZM258,330.98c-.07-1.78-.65-3.21-1.72-4.31s-2.36-1.65-3.86-1.65c-1.9,0-3.48.53-4.75,1.59-1.27,1.07-2.1,2.52-2.54,4.37h12.86Z"/>
    <path class="cls-7" d="M272.55,315.85c0-.85-.43-1.29-1.29-1.29h-2.34v-6.31h7.07c2.65,0,3.97,1.3,3.97,3.91v10.45c0,.38,0,.72-.04,1.01-.02.29-.04.56-.04.8-.04.27-.05.51-.05.71h.11c.34-.71.83-1.41,1.47-2.14.62-.72,1.38-1.36,2.25-1.9.87-.54,1.87-1,2.95-1.34,1.09-.34,2.28-.53,3.57-.53,3.35,0,5.92.89,7.7,2.68,1.79,1.79,2.68,4.66,2.68,8.62v11.6c0,.85.43,1.29,1.29,1.29h2.34v6.31h-7.07c-1.36,0-2.36-.31-2.97-.94-.62-.62-.94-1.63-.94-3.04v-13.66c0-1.83-.33-3.3-.96-4.4s-1.9-1.67-3.77-1.67c-1.99,0-3.7.58-5.11,1.72-1.41,1.14-2.41,2.65-2.95,4.48-.2.58-.33,1.2-.38,1.85s-.09,1.32-.09,2.01v13.66h-7.41v-33.88h.02Z"/>
    <path class="cls-7" d="M310.38,327.53c0-.85-.43-1.29-1.29-1.29h-2.34v-6.31h7.07c1.36,0,2.36.33,2.97.96s.94,1.65.94,3.01v18.23c0,.85.43,1.29,1.29,1.29h2.34v6.31h-7.07c-1.36,0-2.36-.31-2.97-.94-.62-.62-.94-1.63-.94-3.04v-18.23.02ZM310.74,308.26h6.43v6.83h-6.43v-6.83Z"/>
    <path class="cls-7" d="M324.64,334.83c0-2.1.36-4.09,1.11-5.98.74-1.88,1.81-3.55,3.21-4.96s3.1-2.55,5.11-3.39c2.01-.83,4.29-1.25,6.87-1.25.98,0,2.08.11,3.33.33s2.43.6,3.53,1.12c1.11.53,2.05,1.23,2.81,2.08.76.87,1.14,1.94,1.14,3.24v3.5h-6.54v-1.63c0-.38-.14-.74-.42-1.05s-.63-.56-1.05-.72c-.43-.18-.89-.31-1.38-.42s-.96-.14-1.43-.14c-1.29,0-2.48.24-3.55.71-1.07.47-2.01,1.11-2.81,1.92-.8.82-1.41,1.79-1.85,2.94-.43,1.14-.65,2.37-.65,3.7,0,1.52.27,2.84.8,3.99s1.21,2.1,2.08,2.84c.85.76,1.85,1.32,2.95,1.72,1.11.38,2.28.58,3.48.58s2.43-.2,3.51-.62,2.03-.87,2.81-1.38c.94-.58,1.78-1.27,2.52-2.05l3.1,5.15c-.89,1.01-1.97,1.9-3.21,2.68-1.05.67-2.37,1.27-3.95,1.85-1.58.56-3.37.85-5.4.85-2.45,0-4.67-.42-6.65-1.23s-3.68-1.92-5.07-3.33c-1.4-1.4-2.48-3.04-3.24-4.93s-1.14-3.93-1.14-6.11h-.02Z"/>
    <path class="cls-7" d="M358.68,315.85c0-.85-.43-1.29-1.29-1.29h-2.34v-6.31h7.07c2.65,0,3.97,1.32,3.97,3.97v29.91c0,.85.43,1.29,1.29,1.29h2.28v6.31h-7.01c-1.4,0-2.41-.31-3.04-.94s-.94-1.63-.94-3.04v-29.89h.02Z"/>
    <path class="cls-7" d="M372.87,334.83c0-2.3.36-4.4,1.11-6.31s1.78-3.55,3.1-4.93c1.32-1.38,2.94-2.45,4.8-3.21s3.91-1.14,6.14-1.14,4.04.36,5.67,1.11c1.63.74,3.01,1.74,4.13,3.01,1.11,1.27,1.96,2.75,2.55,4.48.58,1.72.87,3.57.87,5.54,0,.24,0,.49-.04.8-.02.29-.05.6-.09.91-.04.34-.05.71-.05,1.05h-20.56c.31,2.65,1.32,4.64,3.01,5.98,1.7,1.34,3.68,2.01,5.92,2.01,1.21,0,2.3-.16,3.3-.49s1.88-.71,2.66-1.14c.85-.47,1.65-1.03,2.39-1.68l3.1,5.15c-.94.85-2.01,1.61-3.23,2.28-1.01.54-2.26,1.05-3.75,1.52s-3.15.71-5.04.71c-2.46,0-4.67-.42-6.67-1.25-1.99-.83-3.68-1.96-5.05-3.39-1.38-1.41-2.45-3.08-3.19-4.96-.74-1.88-1.11-3.88-1.11-5.98l.02-.05ZM393.61,330.98c-.07-1.78-.65-3.21-1.72-4.31s-2.36-1.65-3.86-1.65c-1.9,0-3.48.53-4.75,1.59-1.27,1.07-2.1,2.52-2.54,4.37h12.86Z"/>
    <path class="cls-7" d="M424.74,314.74h-3.8v-6.49h17.94c1.87,0,3.59.24,5.16.71s2.94,1.16,4.06,2.07,2.01,2.03,2.66,3.35.96,2.84.96,4.55c0,1.16-.14,2.21-.43,3.15s-.67,1.78-1.14,2.52c-.47.74-1,1.38-1.61,1.92-.6.54-1.21.98-1.85,1.29v.11c1.12.34,2.12.85,2.95,1.52s1.52,1.43,2.07,2.3.96,1.81,1.23,2.83.42,2.05.42,3.1c0,2.07-.38,3.86-1.14,5.38-.76,1.52-1.79,2.77-3.12,3.77s-2.84,1.72-4.58,2.19-3.55.71-5.45.71h-10.35c-1.36,0-2.37-.31-3.01-.94s-.96-1.63-.96-3.04v-30.98h0ZM438.93,325.2c1.63,0,2.88-.51,3.73-1.54s1.29-2.28,1.29-3.77-.43-2.7-1.29-3.68-2.14-1.47-3.86-1.47h-6.43v10.45h6.56ZM432.39,341.95c0,.85.43,1.29,1.29,1.29h5.96c1.87,0,3.32-.56,4.33-1.68s1.52-2.57,1.52-4.33-.51-3.19-1.52-4.29c-1.01-1.11-2.45-1.67-4.33-1.67h-7.25v10.69Z"/>
    <path class="cls-7" d="M457.61,334.83c0-2.26.43-4.35,1.29-6.29.85-1.92,2.01-3.57,3.46-4.93s3.17-2.43,5.16-3.21c1.97-.78,4.09-1.16,6.36-1.16s4.38.38,6.38,1.16c1.99.78,3.73,1.85,5.18,3.21s2.61,3.01,3.46,4.93,1.29,4.02,1.29,6.29-.43,4.4-1.29,6.31-2.01,3.55-3.46,4.93c-1.45,1.38-3.19,2.45-5.18,3.21-2.01.76-4.13,1.14-6.38,1.14s-4.37-.38-6.36-1.14-3.7-1.83-5.16-3.21c-1.45-1.38-2.61-3.03-3.46-4.93s-1.29-4-1.29-6.31h0ZM465.04,334.83c0,1.4.24,2.66.71,3.8.47,1.12,1.11,2.1,1.9,2.92s1.74,1.45,2.81,1.9,2.21.67,3.42.67,2.36-.22,3.42-.67c1.07-.45,2.03-1.09,2.84-1.9s1.47-1.79,1.94-2.92.71-2.39.71-3.8-.24-2.61-.71-3.77c-.47-1.14-1.11-2.14-1.94-2.95s-1.78-1.45-2.84-1.9-2.21-.67-3.42-.67-2.36.22-3.42.67-2.01,1.09-2.81,1.9-1.43,1.79-1.9,2.95c-.47,1.14-.71,2.41-.71,3.77Z"/>
    <path class="cls-7" d="M494.01,334.83c0-2.26.43-4.35,1.29-6.29.85-1.92,2.01-3.57,3.46-4.93,1.45-1.36,3.17-2.43,5.16-3.21,1.97-.78,4.09-1.16,6.36-1.16s4.38.38,6.38,1.16c1.99.78,3.73,1.85,5.18,3.21s2.61,3.01,3.46,4.93,1.29,4.02,1.29,6.29-.43,4.4-1.29,6.31-2.01,3.55-3.46,4.93c-1.45,1.38-3.19,2.45-5.18,3.21-2.01.76-4.13,1.14-6.38,1.14s-4.37-.38-6.36-1.14-3.7-1.83-5.16-3.21c-1.45-1.38-2.61-3.03-3.46-4.93s-1.29-4-1.29-6.31ZM501.42,334.83c0,1.4.24,2.66.71,3.8.47,1.12,1.11,2.1,1.9,2.92s1.74,1.45,2.81,1.9,2.21.67,3.42.67,2.36-.22,3.42-.67c1.07-.45,2.03-1.09,2.84-1.9s1.47-1.79,1.94-2.92.71-2.39.71-3.8-.24-2.61-.71-3.77c-.47-1.14-1.11-2.14-1.94-2.95s-1.78-1.45-2.84-1.9-2.21-.67-3.42-.67-2.36.22-3.42.67-2.01,1.09-2.81,1.9-1.43,1.79-1.9,2.95c-.47,1.14-.71,2.41-.71,3.77Z"/>
    <path class="cls-7" d="M533.12,315.85c0-.85-.43-1.29-1.29-1.29h-2.34v-6.31h7.07c1.36,0,2.37.22,3.01.67s.96,1.36.96,2.72v18.75h2.21c.47,0,.98-.07,1.52-.2s.98-.43,1.29-.91l6.07-9.35h8.23l-7.54,11.18c-.58.85-1.11,1.47-1.58,1.87-.24.2-.45.34-.63.47v.11c.2.11.42.27.63.47.2.2.42.43.67.72.25.29.51.67.78,1.14l3.39,6.41c.24.43.53.72.87.87.34.16.87.24,1.58.24h1.99v6.31h-5.49c-1.25,0-2.19-.16-2.83-.47-.65-.31-1.25-1.01-1.85-2.1l-4.96-9.35c-.31-.54-.72-.87-1.25-.96-.53-.09-1.01-.14-1.49-.14h-1.63v13.03h-7.41v-33.88h.02Z"/>
    <path class="cls-7" d="M565.88,327.53c0-.85-.43-1.29-1.29-1.29h-2.34v-6.31h7.07c1.36,0,2.36.33,2.97.96.62.63.94,1.65.94,3.01v18.23c0,.85.43,1.29,1.29,1.29h2.34v6.31h-7.07c-1.36,0-2.36-.31-2.97-.94s-.94-1.63-.94-3.04v-18.23.02ZM566.24,308.26h6.43v6.83h-6.43v-6.83Z"/>
    <path class="cls-7" d="M583.11,327.53c0-.85-.43-1.29-1.29-1.29h-2.34v-6.31h6.83c1.32,0,2.3.29,2.95.87s.96,1.4.96,2.45v.87c0,.2,0,.36-.04.49-.02.14-.04.27-.04.38-.04.16-.05.29-.05.42h.11c.31-.62.76-1.29,1.34-2.01.58-.72,1.3-1.4,2.16-2.01s1.87-1.14,3.01-1.54,2.48-.62,4-.62c3.32,0,5.87.89,7.68,2.68s2.72,4.66,2.72,8.62v11.6c0,.85.43,1.29,1.29,1.29h2.34v6.31h-7.07c-1.4,0-2.41-.31-3.04-.94-.62-.62-.94-1.63-.94-3.04v-13.66c0-1.83-.31-3.3-.94-4.4s-1.87-1.67-3.73-1.67c-1.99,0-3.68.56-5.07,1.68s-2.37,2.59-2.92,4.38c-.4,1.18-.58,2.5-.58,3.97v13.66h-7.36v-22.19l.02.02Z"/>
    <path class="cls-7" d="M617.7,334.07c0-2.03.29-3.95.85-5.76s1.4-3.39,2.52-4.73,2.5-2.41,4.15-3.19,3.55-1.16,5.69-1.16c1.76,0,3.21.22,4.35.63,1.14.43,2.1.92,2.83,1.47.82.62,1.49,1.32,1.99,2.1h.11v-.76c0-.67.25-1.29.76-1.87s1.34-.87,2.52-.87h6.88v6.31h-2.28c-.85,0-1.29.38-1.29,1.16v20.49c0,2.57-.45,4.75-1.38,6.5-.91,1.78-2.12,3.23-3.59,4.35-1.49,1.12-3.15,1.94-5.02,2.45s-3.77.76-5.73.76-3.73-.24-5.6-.71-3.53-1.11-4.96-1.88l2.28-5.87c.71.38,1.5.72,2.39,1,.74.27,1.61.51,2.63.71s2.08.29,3.21.29,2.19-.13,3.21-.38,1.9-.67,2.68-1.25c.78-.58,1.4-1.32,1.85-2.25.45-.91.67-2.05.67-3.41v-2.45c0-.16.02-.33.05-.53h-.11c-.89,1.25-2.01,2.23-3.33,2.88-1.32.67-2.97,1-4.96,1-2.14,0-4.04-.4-5.69-1.2s-3.06-1.88-4.2-3.28-2.01-2.97-2.59-4.78-.87-3.75-.87-5.82l-.02.04ZM632.65,342.82c.89,0,1.76-.14,2.59-.43s1.58-.76,2.21-1.43c.63-.65,1.16-1.56,1.54-2.68.38-1.12.58-2.52.58-4.19s-.2-3.06-.58-4.17-.92-1.99-1.61-2.65-1.47-1.12-2.36-1.36c-.91-.25-1.85-.38-2.86-.38-2.26,0-3.99.74-5.16,2.25-1.2,1.49-1.78,3.5-1.78,6.02s.63,4.75,1.9,6.47,3.1,2.55,5.53,2.55h0Z"/>
    <path class="cls-7" d="M673.23,338.62c.85.94,1.81,1.76,2.86,2.45.89.62,1.94,1.2,3.15,1.68,1.21.51,2.55.76,4.02.76.78,0,1.52-.11,2.25-.33s1.36-.53,1.9-.94.98-.91,1.3-1.52.49-1.32.49-2.14c0-1.16-.47-2.16-1.43-2.97s-2.16-1.59-3.62-2.3c-1.47-.72-3.03-1.47-4.69-2.23-1.67-.76-3.24-1.65-4.69-2.68-1.47-1.03-2.66-2.28-3.62-3.77s-1.43-3.3-1.43-5.44c0-1.67.34-3.23,1.05-4.64.71-1.41,1.67-2.66,2.9-3.71s2.68-1.87,4.38-2.45,3.53-.87,5.53-.87c1.21,0,2.54.14,3.97.43s2.77.76,4,1.43,2.26,1.5,3.1,2.54,1.25,2.28,1.25,3.77v3.86h-6.88v-1.87c0-.47-.16-.91-.47-1.32s-.72-.74-1.27-1.01c-.53-.27-1.12-.49-1.76-.63-.65-.16-1.32-.24-2.03-.24-1.76,0-3.23.42-4.37,1.23-1.16.82-1.74,1.88-1.74,3.21,0,1.16.47,2.14,1.43,2.92s2.17,1.5,3.62,2.19c1.47.69,3.04,1.38,4.71,2.07s3.24,1.58,4.71,2.59c1.47,1.03,2.68,2.3,3.62,3.82.96,1.52,1.43,3.41,1.43,5.67,0,1.63-.31,3.19-.94,4.67-.62,1.49-1.52,2.77-2.68,3.88-1.16,1.11-2.61,1.99-4.31,2.66-1.72.67-3.66,1-5.83,1-2.34,0-4.38-.33-6.12-1-1.76-.67-3.23-1.4-4.44-2.23-1.4-.94-2.63-2.01-3.68-3.21l4.33-5.38v.04Z"/>
    <path class="cls-7" d="M703.25,354.69c.38.27.83.51,1.34.71s1.07.29,1.68.29c1.01,0,1.94-.31,2.81-.94s1.56-1.58,2.1-2.86l1-2.26-9.93-22.32c-.2-.43-.4-.71-.62-.85s-.54-.2-.96-.2h-.87v-6.31h4.91c1.05,0,1.87.22,2.45.63.58.43,1.07,1.14,1.47,2.16l5.83,14.89c.31.82.56,1.67.76,2.57.11.47.22.94.29,1.4h.11c.07-.47.18-.94.29-1.4.07-.43.18-.87.29-1.32s.25-.87.42-1.25l5.07-14.89c.34-1.01.85-1.74,1.49-2.16.63-.43,1.47-.63,2.48-.63h5.02v6.31h-.87c-.43,0-.76.07-1.01.2-.25.14-.47.42-.67.85l-10.69,26.92c-1.05,2.68-2.55,4.66-4.49,5.91-1.96,1.25-4.02,1.87-6.25,1.87-1.16,0-2.21-.16-3.15-.47s-1.74-.67-2.39-1.07c-.74-.43-1.4-.94-1.99-1.54l2.86-5.29c.38.38.8.74,1.23,1.05v.02Z"/>
    <path class="cls-7" d="M736.37,340.25c.74.82,1.58,1.56,2.52,2.23.78.54,1.72,1.05,2.81,1.49,1.09.45,2.28.67,3.57.67,1.12,0,2.08-.24,2.86-.71s1.16-1.21,1.16-2.21c0-.71-.38-1.3-1.16-1.81-.78-.51-1.76-1-2.92-1.49-1.16-.49-2.43-1-3.77-1.54s-2.59-1.21-3.77-2.01c-1.16-.8-2.14-1.76-2.92-2.86s-1.16-2.46-1.16-4.06c0-1.49.31-2.77.94-3.86.62-1.09,1.47-1.99,2.52-2.72,1.05-.72,2.28-1.25,3.68-1.61s2.88-.53,4.44-.53c1.01,0,2.12.09,3.33.29s2.34.53,3.39,1c1.05.47,1.94,1.11,2.66,1.92.72.82,1.09,1.81,1.09,3.03v3.1h-6.54v-1.47c0-.71-.42-1.23-1.25-1.58s-1.65-.53-2.46-.53c-1.32,0-2.37.22-3.19.67s-1.21,1.12-1.21,2.01c0,.78.38,1.43,1.16,1.96.78.53,1.74,1.01,2.92,1.45,1.16.45,2.43.92,3.8,1.43s2.65,1.14,3.8,1.88,2.14,1.68,2.92,2.79,1.16,2.48,1.16,4.11c0,1.4-.29,2.66-.87,3.79s-1.4,2.08-2.43,2.86-2.25,1.38-3.62,1.81c-1.38.43-2.9.63-4.53.63-2.07,0-3.88-.27-5.44-.82s-2.84-1.14-3.86-1.81c-1.25-.78-2.28-1.67-3.1-2.68l3.5-4.86-.04.02Z"/>
    <path class="cls-7" d="M763.69,325.83h-3.86v-5.91h4.02v-8.12h7.25v8.12h6.78v5.91h-6.78v12.03c0,1.25.22,2.23.63,2.95.43.72.94,1.29,1.54,1.68s1.25.67,1.92.8c.69.11,1.27.18,1.78.18s.83-.02,1-.05c.14,0,.27-.02.34-.05v6.49c-.2.04-.42.07-.63.11-.2.04-.43.05-.72.05h-.91c-1.05,0-2.28-.11-3.71-.34s-2.77-.74-4.06-1.52-2.37-1.9-3.26-3.39c-.91-1.49-1.34-3.46-1.34-5.96v-12.97h.02Z"/>
    <path class="cls-7" d="M782.21,334.83c0-2.3.38-4.4,1.11-6.31.74-1.9,1.78-3.55,3.1-4.93,1.32-1.38,2.94-2.45,4.8-3.21s3.91-1.14,6.14-1.14,4.04.36,5.67,1.11c1.65.74,3.01,1.74,4.13,3.01,1.11,1.27,1.96,2.75,2.55,4.48.58,1.72.87,3.57.87,5.54,0,.24,0,.49-.04.8-.02.29-.05.6-.09.91-.04.34-.05.71-.05,1.05h-20.56c.31,2.65,1.32,4.64,3.01,5.98s3.68,2.01,5.92,2.01c1.21,0,2.3-.16,3.3-.49,1-.33,1.88-.71,2.66-1.14.85-.47,1.65-1.03,2.39-1.68l3.1,5.15c-.94.85-2.01,1.61-3.23,2.28-1.01.54-2.26,1.05-3.75,1.52s-3.15.71-5.04.71c-2.46,0-4.67-.42-6.67-1.25s-3.68-1.96-5.05-3.39c-1.38-1.41-2.45-3.08-3.19-4.96-.74-1.88-1.11-3.88-1.11-5.98l.02-.05ZM802.94,330.98c-.07-1.78-.65-3.21-1.72-4.31s-2.36-1.65-3.86-1.65c-1.9,0-3.48.53-4.75,1.59-1.25,1.07-2.1,2.52-2.54,4.37h12.86Z"/>
    <path class="cls-7" d="M817.72,327.53c0-.85-.43-1.29-1.29-1.29h-2.34v-6.31h6.83c1.32,0,2.3.29,2.95.87s.96,1.4.96,2.45v.87c0,.2,0,.36-.04.49-.02.14-.04.27-.04.38v.42h.11c.34-.74.83-1.49,1.43-2.23.6-.74,1.32-1.4,2.16-1.99.83-.58,1.76-1.05,2.77-1.43,1.01-.36,2.1-.56,3.28-.56,4.51,0,7.41,2.05,8.7,6.12h.11c.38-.82.91-1.59,1.58-2.34s1.43-1.4,2.3-1.96c.87-.56,1.85-1.01,2.92-1.34s2.19-.49,3.35-.49c3.12,0,5.53.91,7.21,2.72,1.68,1.81,2.54,4.67,2.54,8.59v11.6c0,.85.43,1.29,1.29,1.29h2.28v6.31h-7.01c-1.4,0-2.41-.31-3.04-.94s-.94-1.63-.94-3.04v-13.79c0-.85-.05-1.65-.14-2.37s-.29-1.34-.58-1.87-.71-.94-1.25-1.25-1.25-.47-2.1-.47c-1.87,0-3.42.67-4.64,2.01-1.23,1.34-2.05,2.95-2.48,4.82-.2.58-.33,1.2-.38,1.81s-.09,1.29-.09,1.99v13.08h-7.41v-17.76c0-.82-.04-1.59-.11-2.3-.07-.72-.25-1.36-.56-1.9-.29-.54-.71-.98-1.23-1.29-.53-.31-1.23-.47-2.14-.47-1.87,0-3.42.67-4.64,2.01-1.23,1.34-2.07,2.97-2.54,4.87-.31,1.25-.47,2.5-.47,3.73v13.08h-7.36v-22.19l.05.07Z"/>
  </g>
</svg>